<svg width="115" height="133" viewBox="0 0 115 133" fill="none" xmlns="http://www.w3.org/2000/svg">
<g clip-path="url(#clip0)">
<path d="M56.6815 31.1032C56.5791 31.1032 56.4768 31.1032 56.3745 31.1032V41.4368V68.7544H83.4875C83.5898 47.8826 71.5169 31.1032 56.6815 31.1032Z" fill="white"/>
<path d="M29.8755 68.6521C29.8755 89.3194 41.7438 106.099 56.4769 106.406V68.6521H29.8755Z" fill="white"/>
<path fill-rule="evenodd" clip-rule="evenodd" d="M68.5498 116.637L68.2429 116.842V116.637L68.3452 116.228L68.5498 114.591C68.7544 113.67 67.7313 112.238 67.629 109.577C67.5267 107.122 67.7313 104.973 68.3452 102.62C68.4475 106.201 69.6753 107.94 70.0845 110.601V111.112V111.624V112.135L69.8799 113.465V113.875L69.6753 114.182L69.266 114.795L68.9591 115.409L68.8568 116.023L68.6521 116.535L68.5498 116.637Z" fill="white"/>
<path fill-rule="evenodd" clip-rule="evenodd" d="M69.0614 114.693C69.4707 112.647 69.1638 110.601 68.8568 108.145L68.4476 106.406L68.3452 105.28L68.2429 103.643" fill="white"/>
<path fill-rule="evenodd" clip-rule="evenodd" d="M79.9066 33.2518C80.7251 34.3772 81.6459 35.5027 82.5668 36.5258C83.9991 38.1628 85.7385 38.1628 86.1477 38.4698C86.9662 38.9813 87.6824 39.5952 88.5009 40.2091C88.7056 40.9253 88.7056 41.5392 89.1148 42.153L89.5241 42.5623L89.9333 44.3016C89.5241 43.8924 89.1148 43.4831 88.6032 43.0738C88.5009 41.9484 88.3986 41.5392 87.2732 41.1299C85.1246 40.4137 85.6362 43.2785 87.4778 43.6877C87.887 43.79 88.194 43.5854 88.6032 43.3808L90.0356 44.8132C90.0356 44.5062 90.1379 44.097 90.2402 43.79C89.7287 42.3577 89.1148 41.2322 89.5241 39.6975C89.7287 39.3906 89.831 38.9813 89.9333 38.6744C91.468 35.5027 91.8773 33.661 91.468 30.0801L91.2634 27.3176C90.4449 29.9778 89.0125 32.4333 89.0125 35.2981C89.0125 36.8327 89.1148 38.2651 89.1148 39.6975C88.9102 38.1628 88.8079 36.5258 88.3986 35.0934C87.6824 32.4333 85.7385 31.0009 83.9991 29.0569C84.4084 30.694 84.8177 32.024 85.5338 33.661C86.3523 35.4004 87.4778 36.8327 88.194 38.5721C88.5009 39.186 88.6032 39.7998 88.8079 40.516C87.6824 38.4698 86.1477 36.0142 83.8968 34.9911C82.6691 34.5819 81.2367 33.8657 79.9066 33.2518Z" fill="white"/>
<path fill-rule="evenodd" clip-rule="evenodd" d="M97.2998 59.444V58.8301L97.0951 58.1139L96.6859 57.2954L96.5836 56.7838V55.863L96.9928 54.8399L96.7882 54.6352L96.5836 55.2491L96.1743 55.7607V54.6352C96.4813 52.3844 97.0951 50.3381 97.2998 48.0872C97.709 44.6085 97.0951 41.8461 95.8674 38.4698C95.2535 41.7438 94.0257 47.0641 94.3327 47.8826L94.5373 48.3941V49.1103L95.0489 50.4404L95.2535 51.3612L95.4581 53.2029L95.6628 54.3283L95.0489 53.5098L94.435 52.1797L93.3096 50.645L92.0818 49.315L90.854 47.9849L89.3193 46.5525L87.7846 45.3247L86.5569 44.6085L84.5106 43.1762L86.1476 45.8363L87.58 48.0872L88.8078 49.8265L90.2402 51.1566L91.4679 51.7705L93.1049 52.6913L94.2304 53.4075L94.7419 54.1237L95.1512 55.0445L95.2535 55.5561L95.6628 56.7838L95.0489 56.2723L94.1281 56.0676H93.6165L93.5142 56.2723L93.9234 56.3746L94.6396 56.5792L95.3558 56.8861L95.9697 57.5L96.5836 58.7278L96.6859 59.444V59.6486L96.8905 59.9555L97.0951 60.0578L97.2998 59.444Z" fill="white"/>
<path fill-rule="evenodd" clip-rule="evenodd" d="M92.3888 54.9422C91.3656 54.9422 90.5471 55.556 90.5471 56.3746C90.5471 57.1931 91.3656 57.8069 92.3888 57.8069C93.4119 57.8069 94.2304 57.1931 94.2304 56.4769L93.9235 56.2722L93.5142 56.1699L93.6165 55.9653H94.1281H94.3327C94.1281 55.4537 93.3096 54.9422 92.3888 54.9422Z" fill="white"/>
<path fill-rule="evenodd" clip-rule="evenodd" d="M95.2536 55.2491L94.8444 55.1468L93.7189 54.1237C93.412 53.919 93.105 53.7144 92.7981 53.5098C87.7847 51.9751 84.5107 49.9288 81.1344 46.3479L84.2038 47.2687L87.1709 48.1895L87.7848 48.2918L88.9102 49.7242L90.3426 51.0543L91.5703 51.6682L93.2073 52.589L93.7189 52.8959L94.0259 53.2029L94.3328 53.7144L94.6397 54.226L94.9467 54.7376H95.1513V54.8399L95.2536 55.2491Z" fill="white"/>
<path fill-rule="evenodd" clip-rule="evenodd" d="M89.831 39.0836C91.1611 42.153 92.7981 45.0178 94.1282 48.0872L94.4351 48.4964V49.1103L94.9467 50.4404L95.1513 51.3612L95.3559 53.2028L95.5605 54.3283L94.9467 53.5098L94.4351 52.1797L93.3097 50.645L92.0819 49.3149L90.8541 47.9849L90.4449 47.5756L90.3426 46.8594L89.7287 45.0178L89.4218 43.79V42.9715L89.5241 41.3345L89.831 39.0836Z" fill="white"/>
<path fill-rule="evenodd" clip-rule="evenodd" d="M97.9137 59.0347L97.4021 60.1601V60.4671L97.0952 59.9555V59.8532V59.9555L97.1975 59.3416L97.2998 58.7278C97.6068 57.3977 97.4022 56.1699 97.7091 54.8399C98.6299 51.4635 100.778 48.5988 102.006 45.3247C102.825 50.8496 100.778 54.3283 97.9137 59.0347Z" fill="white"/>
<path fill-rule="evenodd" clip-rule="evenodd" d="M98.7322 74.177L98.6299 72.4377L98.7322 70.903L98.9368 69.1637L99.2438 66.8105L99.1414 65.1735V63.9457L98.5276 62.8203L98.016 61.5925L97.4021 60.5694L96.4813 59.2393L95.9697 58.1139L95.4582 57.1931L95.2535 58.0116L95.3559 58.7278L95.4582 59.7509L95.6628 60.774L95.9697 61.8995L96.379 63.0249L96.6859 64.5596L96.9929 65.7874L97.2998 67.0151L97.7091 68.4475L98.016 69.9822L98.2206 71.21V72.7447V74.484L98.4252 74.177H98.7322Z" fill="white"/>
<path fill-rule="evenodd" clip-rule="evenodd" d="M98.7322 63.2295L98.6299 62.411L98.9369 61.2856L99.3461 60.6717L99.1415 60.5694L98.8346 60.8763L98.5276 61.5925L98.323 62.2064L98.5276 62.8203L98.7322 63.2295Z" fill="white"/>
<path fill-rule="evenodd" clip-rule="evenodd" d="M100.267 57.7046C99.6531 57.3977 98.7322 58.0116 98.4253 58.9324C98.1184 59.8532 98.2207 60.774 98.8345 61.081L98.9369 60.8763L99.2438 60.5694L99.4484 60.6717L99.1415 61.2856C99.7554 61.3879 100.472 60.774 100.881 59.9555C101.085 58.9324 100.881 57.9093 100.267 57.7046Z" fill="white"/>
<path fill-rule="evenodd" clip-rule="evenodd" d="M96.379 63.3318L95.7652 62.411C94.742 60.8763 93.3096 59.6486 92.1842 58.2162C92.9004 60.6717 93.412 63.0249 94.4351 65.3781L94.742 66.1966L95.8675 67.3221L96.5837 68.7544L97.2999 69.9822L97.6068 70.8007L97.9137 72.0285L98.323 74.0747L98.4253 74.3817V72.7447V71.1076L98.2207 69.8799L97.9137 68.3452L97.5045 66.9128L97.1976 65.685L96.7883 64.4573L96.379 63.3318Z" fill="white"/>
<path fill-rule="evenodd" clip-rule="evenodd" d="M89.7286 60.8763C91.5703 62.411 92.9003 64.1504 94.6397 65.992L95.7651 67.2198L96.4813 68.6521L97.1975 69.8799L97.5044 70.6984L97.8114 71.9262L98.2206 73.9724L98.3229 74.2794L98.5276 74.0747H98.7322L99.0391 73.9724L101.085 71.9262C104.257 68.4475 110.089 67.1174 115 66.1966C109.373 72.4377 103.848 72.0285 103.132 72.1308C101.699 72.4377 100.676 72.9493 99.653 73.7678V74.2794L99.5507 74.7909L98.8345 75.8141L98.2206 76.5303L97.8114 77.4511L97.6068 78.1673V78.8834L97.2998 79.1904L97.0952 78.7811L97.2998 77.9626V77.4511V76.7349V76.2233L97.5044 75.7117L97.8114 75.4048L97.6068 74.9956V74.177L97.2998 73.4609V73.2562L97.1975 73.0516L96.379 72.0285L94.9466 70.3915L94.0258 69.266L93.9235 69.1637L93.2073 68.0383C91.7749 66.0943 90.5471 63.6388 89.7286 60.8763Z" fill="white"/>
<path fill-rule="evenodd" clip-rule="evenodd" d="M87.1708 66.299L88.8078 66.8105L91.161 67.936L93.1049 69.0614L94.0258 69.3683L95.0489 70.4938L96.4813 72.1308L97.2998 73.1539L97.5044 73.4609L97.709 74.2794V75.0979L97.9137 75.4048L97.6067 75.7118L97.2998 74.484L96.8905 73.8701L95.5605 73.0516L94.5373 72.2331L93.2073 71.8239L92.0818 71.1077L91.0587 70.8007L90.3425 70.1868L89.3194 69.3683L88.6032 68.5498L87.887 67.4244L87.1708 66.299Z" fill="white"/>
<path fill-rule="evenodd" clip-rule="evenodd" d="M107.02 59.0347C106.303 62.2064 106.201 64.048 104.564 67.0151C103.746 68.2429 102.722 69.4706 101.802 70.5961L100.983 71.5169L100.267 72.1308L99.8577 72.847L99.653 73.3585L98.9368 74.0747L98.6299 74.177L98.5276 72.4377L98.6299 71.0053L98.9368 69.266L99.1415 66.9128V65.2758V64.5596L99.3461 63.7411L99.653 62.9226L100.267 61.6948L100.881 60.5694L101.495 59.2393L102.62 57.5L102.518 58.6254L102.313 60.2625V61.1833L102.211 62.411L101.904 64.048L101.495 65.7874L101.085 67.2197L100.676 68.3452L100.267 69.3683L99.8577 70.3915L99.4484 71.21L99.0392 71.9262L98.9368 72.4377V72.847L98.8345 73.4609H99.0392L99.1415 72.9493L99.2438 72.3354L99.4484 71.7215L99.5507 71.3123L99.8577 70.5961L100.267 69.6753C100.472 69.0614 100.676 68.4475 100.881 67.7313L101.597 66.5036C103.234 64.048 104.973 61.1833 107.02 59.0347Z" fill="white"/>
<path fill-rule="evenodd" clip-rule="evenodd" d="M99.8577 75.0979C99.2438 75.6094 98.9369 76.4279 99.1415 77.0418L99.3461 76.9395L99.4484 77.2464L99.3461 77.3488C99.8577 77.8603 100.983 77.8603 101.802 77.1441C102.62 76.4279 102.825 75.4048 102.313 74.8932C101.699 74.2794 100.676 74.484 99.8577 75.0979Z" fill="white"/>
<path fill-rule="evenodd" clip-rule="evenodd" d="M99.4483 77.2464C99.4483 77.3487 99.0391 77.758 99.0391 77.758L98.6298 78.2696L98.2206 78.6788L97.8113 79.0881V79.9066V80.6228L97.709 80.9297L97.5044 81.3389L97.2998 81.8505L97.1975 82.4644L97.0951 82.976L97.5044 82.5667L98.016 81.9528L98.6298 81.032L99.346 80.0089C101.495 77.1441 105.792 75.0978 109.373 73.4608L109.782 73.2562C108.247 75.2002 106.815 77.2464 104.666 78.6788C102.927 79.9066 101.392 80.6228 99.4483 81.5436L99.0391 81.8505L98.4252 82.2598L98.016 82.4644L97.709 82.8736L97.4021 83.1806V83.5898L97.1975 83.7945L96.9928 84.1014L96.7882 84.4083L96.5836 84.8176L96.4813 85.1245L96.7882 84.9199L97.0951 84.5107L97.5044 84.2037V84.5107V84.8176L96.9928 85.2269L96.5836 85.4315L96.2766 85.7384L96.1743 86.0454V86.25L96.072 86.7615L95.9697 87.1708L95.8674 87.4777L95.6628 87.7847L95.4581 88.1939L95.1512 88.7055L94.8443 89.3194L94.5373 89.8309L94.2304 90.4448L93.8211 91.161L93.6165 91.468L92.6957 93.2073L92.1841 94.1281L91.3656 95.6628L90.854 96.4813L90.3425 96.8905V96.7882L90.6494 95.9697L91.161 94.8443L91.5702 93.7188L91.8772 93.0027L92.0818 92.3888L92.2864 92.1841L93.4119 90.0356L94.1281 88.5009L94.435 87.887L94.5373 87.0685L94.7419 86.6592L95.0489 86.3523L95.1512 85.3292L94.9466 84.7153L94.7419 84.1014L94.435 83.6922L94.2304 83.4875L94.0258 83.1806L94.2304 83.0783L94.5373 83.1806V83.4875L94.8443 83.8968L95.0489 84.4083L95.2535 84.9199L95.6628 83.9991L95.8674 83.4875L96.1743 82.5667L96.2766 81.9528L96.379 81.032V80.2135L95.8674 79.8043L95.1512 79.1904L94.5373 78.3719L93.9234 77.758L93.3096 77.1441L92.798 76.3256L92.0818 75.5071L91.4679 74.7909L90.854 74.0747L90.2402 73.2562L89.7286 72.4377L89.0124 70.8007L88.6032 69.9822L88.3985 69.3683L87.9893 68.7544L87.887 68.2429L88.7055 69.1637L89.3193 69.6752L90.0355 70.1868L90.6494 70.6984L91.5702 71.3123L92.1841 71.8238L93.0026 72.2331L93.7188 72.847L94.3327 73.5631L94.7419 73.9724L95.3558 74.7909L95.8674 75.6094L96.2766 76.3256L96.6859 76.9395L96.8905 77.6557L97.0951 78.1672L97.1975 78.5765H97.2998L97.6067 79.0881L97.9136 78.7811H98.016L98.4252 78.1672L98.8345 77.6557L99.2437 77.2464L99.5507 76.9395L99.4483 77.2464Z" fill="white"/>
<path fill-rule="evenodd" clip-rule="evenodd" d="M96.2767 82.8737L96.0721 82.2598L95.9698 81.6459L95.5605 80.8274L94.8443 79.8043L94.2304 78.9858L93.5142 78.0649L92.9004 77.5534L92.3888 77.1441L91.6726 76.6326L90.8541 76.0187L90.2402 75.6094L89.3194 75.0979L88.7055 74.7909L87.9893 74.3817L87.2731 73.6655L86.8639 73.4608L87.1708 73.9724L87.5801 74.7909L88.194 75.814L88.7055 76.8372L89.4217 77.6557L90.1379 78.4742L91.0587 79.395L91.7749 80.0089L92.7981 80.7251L93.9235 81.339L94.2304 81.5436L95.1513 82.1575L95.5605 82.5667L95.9698 83.6922L96.2767 82.8737Z" fill="white"/>
<path fill-rule="evenodd" clip-rule="evenodd" d="M94.1281 81.8505C93.4119 81.032 92.4911 80.9297 91.8772 81.4413C91.3657 81.9529 91.468 82.976 92.0818 83.7945C92.798 84.613 93.8212 84.7153 94.3327 84.2038C94.3327 84.2038 94.3327 84.2037 94.435 84.1014L94.2304 83.8968L94.0258 83.5899L94.2304 83.4876L94.5374 83.5899V83.7945C94.8443 83.1806 94.6397 82.3621 94.1281 81.8505Z" fill="white"/>
<path fill-rule="evenodd" clip-rule="evenodd" d="M104.257 92.3888C102.211 94.5374 99.5507 96.6859 96.5836 97.9137L94.1281 98.8345C92.4911 99.4484 90.7517 99.7553 89.0124 100.165L88.2962 100.574L87.7846 101.392L87.3754 102.006L86.6592 102.825L85.6361 103.643V103.541L85.8407 102.722L85.943 102.415L86.3523 102.211L86.6592 101.392L86.8638 100.778L86.7615 99.96L86.5569 99.3461L86.1476 98.8345L86.0453 98.5276L86.25 98.3229L86.5569 98.8345L86.7615 99.2438L86.9661 99.7553L87.0685 100.676L87.2731 100.062L87.4777 99.7553L87.9893 99.4484L88.0916 98.6299V97.9137L87.58 96.9929C85.943 95.4582 85.1245 93.8212 84.5106 91.6726C83.8967 89.3194 83.7944 86.9662 83.7944 84.5107L83.8967 83.5898C84.6129 85.6361 85.6361 87.9893 86.9661 89.831L87.1708 90.1379V90.9564L87.58 92.9003L88.0916 94.0258L88.1939 94.742L88.2962 95.9697L88.3985 97.1975L88.2962 98.6299V99.2438L88.1939 99.653L88.3985 99.8576L89.1147 98.9368V98.4253L89.217 98.3229L89.8309 97.1975L90.2402 96.8906L90.7517 96.4813L91.2633 95.6628L92.0818 94.1281C93.0026 92.4911 94.0257 90.9564 95.2535 89.524C97.2998 87.0685 99.5507 84.8176 101.802 82.5667C100.881 85.5338 100.062 87.7847 98.2206 90.3425C96.9928 92.0818 95.7651 93.3096 94.0257 94.6397C93.2072 95.2535 92.3887 95.9697 91.4679 96.5836L90.9564 97.1975L90.2402 97.8114L90.1378 98.3229L89.9332 98.9368L90.3425 98.7322L90.9564 98.3229C92.3887 96.8906 94.1281 95.9697 95.8674 94.9466C98.4252 93.5142 101.085 93.105 104.257 92.3888Z" fill="white"/>
<path fill-rule="evenodd" clip-rule="evenodd" d="M91.1611 81.7482L91.5703 82.976L91.9796 84.1014L92.4911 85.5338L92.5935 86.6593L92.6958 87.887V89.1148V90.3425L92.4911 91.468L91.9796 93.2073L91.775 93.9235L91.3657 95.0489L90.7518 96.1744L90.4449 96.9929L90.0356 97.4021L89.5241 98.5276L89.4218 98.6299V98.2207L90.0356 96.5836V95.8674L90.2403 95.5605L90.4449 94.4351V92.2865L90.3426 90.0356L90.1379 89.3194L90.3426 88.6032L90.4449 87.2731L90.8541 85.6361L91.0588 83.9991L91.1611 82.976V81.7482Z" fill="white"/>
<path fill-rule="evenodd" clip-rule="evenodd" d="M87.6824 80.9297L88.0917 82.3621L88.7055 84.3061L89.2171 86.1477L89.831 87.7847L90.0356 88.6032L90.3426 90.0356L90.4449 92.2865V94.4351L90.2402 95.5605L89.7287 96.379L89.524 97.2998L89.4217 98.1183V99.1415L88.7055 100.062L88.5009 99.7553L88.9102 98.323L89.1148 96.9929L89.0125 95.9698L88.9102 95.2536L88.6032 94.3327L87.887 92.9004L87.4778 90.9564V88.9101V86.6593L87.5801 84.1014L87.6824 80.9297Z" fill="white"/>
<path fill-rule="evenodd" clip-rule="evenodd" d="M86.3523 96.7883C85.6361 95.8674 84.613 95.5605 83.8968 95.9698C83.2829 96.4813 83.2829 97.6068 83.8968 98.5276C84.613 99.4484 85.7385 99.7553 86.3523 99.3461L86.1477 99.0392L86.0454 98.7322L86.25 98.5276L86.557 98.9368C87.0685 98.4253 86.9662 97.5045 86.3523 96.7883Z" fill="white"/>
<path fill-rule="evenodd" clip-rule="evenodd" d="M85.6362 104.155L85.5339 104.359L85.2269 104.973L85.7385 105.076L86.6593 105.178L88.5009 105.383L90.8542 105.587L93.0027 105.69C95.7652 105.383 98.7323 104.871 101.29 103.746C98.323 103.336 95.9698 102.62 92.5935 102.62C90.2403 102.722 87.9894 103.336 85.6362 104.155Z" fill="white"/>
<path fill-rule="evenodd" clip-rule="evenodd" d="M97.6068 109.987C96.4814 108.964 95.2536 107.94 93.9235 107.122L91.9796 105.996L91.2634 105.485H91.0588L88.7056 105.28L86.8639 105.076L85.9431 104.973L85.4315 104.871L85.3292 105.076L85.9431 105.485L86.9662 106.303C89.0125 107.327 90.9564 108.145 93.2073 108.759C94.6397 109.27 96.0721 109.68 97.6068 109.987Z" fill="white"/>
<path fill-rule="evenodd" clip-rule="evenodd" d="M86.3523 100.062L86.25 101.085L86.0453 102.109L85.8407 102.825L85.5338 104.359L85.0222 105.485L84.613 106.508L84.1014 107.633L83.6921 108.247C83.0783 109.168 82.3621 109.782 81.6459 110.498L80.9297 111.112L79.8042 111.828L78.9857 112.442L78.3719 112.851L77.6557 113.158L77.1441 113.465L76.5302 113.977L76.0187 114.182L75.7117 114.284L74.9955 114.079L74.7909 113.568L74.8932 113.056L75.3025 112.851L75.814 111.726L76.0187 110.601V109.782L76.121 108.554V107.94L76.7348 106.61L77.451 104.666L77.9626 102.415L77.451 102.927L76.6325 103.95L76.3256 104.257V103.541C76.8372 101.085 78.0649 99.1415 79.0881 96.8906L79.4973 95.7651V97.1975C79.4973 98.9368 79.5996 100.574 79.4973 102.313L79.395 103.336L78.9857 105.587L78.5765 107.736L77.9626 108.964L77.5534 109.884L76.9395 110.703L76.5302 111.317L76.121 112.135L75.7117 112.851V113.158H76.0187L76.5302 112.851L77.2464 112.34L77.758 111.726L78.4742 110.601L79.0881 109.68L80.0089 108.452L80.6228 107.531L81.4413 106.508L82.2598 105.485L82.8736 104.564C84.1014 103.132 85.2268 101.802 86.3523 100.062Z" fill="white"/>
<path fill-rule="evenodd" clip-rule="evenodd" d="M94.2305 111.419C92.2865 111.112 90.3426 110.805 88.3986 110.703C86.1477 110.498 83.8968 110.601 81.6459 110.601L80.9298 111.214L79.8043 111.931L79.1904 112.442L80.0089 112.647L81.1344 112.749H82.3621C84.7153 112.851 87.0685 112.647 89.5241 112.34C91.0588 112.135 92.6958 111.828 94.2305 111.419Z" fill="white"/>
<path fill-rule="evenodd" clip-rule="evenodd" d="M90.1379 117.762C88.5009 116.535 86.7615 115.409 84.9199 114.386C83.7945 113.772 82.7713 113.363 81.5436 112.954L80.4181 112.544L79.0881 112.34H78.9857L78.3719 112.749L78.1672 112.851L78.2695 113.056L79.1904 113.772C80.9297 114.693 82.4644 115.818 84.306 116.432C86.25 117.149 88.1939 117.353 90.1379 117.762Z" fill="white"/>
<path fill-rule="evenodd" clip-rule="evenodd" d="M82.7714 96.379C81.6459 98.4253 80.6228 100.472 79.8043 102.722L79.395 103.541L78.9858 105.792L78.5765 107.94L78.1673 108.861V109.577L77.758 110.498L77.1441 111.419L76.4279 112.033L76.0187 112.238L75.6094 112.954V113.261H75.9164L76.4279 112.954L77.1441 112.442L77.6557 111.828L78.3719 110.703L78.9858 109.782L79.9066 108.554L80.5205 107.633L81.339 106.61L81.7482 106.099L81.8505 105.383C82.7714 102.415 82.5667 99.4484 82.7714 96.379ZM74.9956 114.181L74.7909 113.67L74.8932 113.158L75.3025 112.954L75.5071 112.647L75.3025 112.749L73.9724 113.568L72.2331 114.488L72.1308 114.591L70.0845 115.921L69.573 116.228L69.7776 115.512V115.409H69.6753L68.9591 115.716V115.921L68.7545 116.432L68.5498 116.637L68.2429 116.842V116.637L68.3452 116.228V116.023H68.2429L67.1174 116.739L65.4804 117.456L64.7642 117.762L63.8434 117.967L62.411 118.683L60.8763 119.502L59.8532 119.911L59.137 120.116H58.1139V120.32L59.7509 120.934L60.3648 120.73L61.5925 120.423L62.6157 120.116L63.2296 119.809L64.1504 119.706L64.6619 119.399L65.4804 118.99H65.2758H64.7642L64.6619 118.683H65.4804H65.8897L65.992 118.581L66.5036 118.376L67.2198 118.172L67.7313 118.069L68.4475 117.762L67.8336 117.66L68.2429 117.456L68.6521 117.251L69.0614 117.149H69.4707L69.3683 117.353L70.0845 117.251H70.3915L71.0054 116.944L71.21 116.637H71.9262H72.847H73.4609V116.33H72.9493L71.8239 116.125L72.3354 115.819L72.847 115.512L73.4609 115.307L73.2562 115.102L73.4609 114.795H73.7678L73.9724 115L74.484 114.693L75.2002 114.488L74.9956 114.181Z" fill="white"/>
<path fill-rule="evenodd" clip-rule="evenodd" d="M82.7714 96.379C81.6459 98.4253 80.6228 100.472 79.8043 102.722L79.395 103.541L78.9858 105.792L78.5765 107.94L78.1673 108.861V109.577L77.758 110.498L77.1441 111.419L76.4279 112.033L76.0187 112.238L75.6094 112.954V113.261H75.9164L76.4279 112.954L77.1441 112.442L77.6557 111.828L78.3719 110.703L78.9858 109.782L79.9066 108.554L80.5205 107.633L81.339 106.61L81.7482 106.099L81.8505 105.383C82.7714 102.415 82.5667 99.4484 82.7714 96.379ZM74.9956 114.181L74.7909 113.67L74.8932 113.158L75.3025 112.954L75.5071 112.647L75.3025 112.749L73.9724 113.568L72.2331 114.488L72.1308 114.591L70.0845 115.921L69.573 116.228L69.7776 115.512V115.409H69.6753L68.9591 115.716V115.921L68.7545 116.432L68.5498 116.637L68.2429 116.842V116.637L68.3452 116.228V116.023H68.2429L67.1174 116.739L65.4804 117.456L64.7642 117.762L63.8434 117.967L62.411 118.683L60.8763 119.502L59.8532 119.911L59.137 120.116H58.1139V120.32L59.7509 120.934L60.3648 120.73L61.5925 120.423L62.6157 120.116L63.2296 119.809L64.1504 119.706L64.6619 119.399L65.4804 118.99H65.2758H64.7642L64.6619 118.683H65.4804H65.8897L65.992 118.581L66.5036 118.376L67.2198 118.172L67.7313 118.069L68.4475 117.762L67.8336 117.66L68.2429 117.456L68.6521 117.251L69.0614 117.149H69.4707L69.3683 117.353L70.0845 117.251H70.3915L71.0054 116.944L71.21 116.637H71.9262H72.847H73.4609V116.33H72.9493L71.8239 116.125L72.3354 115.819L72.847 115.512L73.4609 115.307L73.2562 115.102L73.4609 114.795H73.7678L73.9724 115L74.484 114.693L75.2002 114.488L74.9956 114.181Z" fill="white"/>
<path fill-rule="evenodd" clip-rule="evenodd" d="M78.0649 102.62L77.5533 104.769L76.7348 106.713L75.9163 108.657L75.4048 109.884L74.5863 111.01L73.5631 112.647L72.8469 113.67L72.6423 114.079L72.233 114.591L70.0845 115.921H70.1868L70.3914 115.716L71.0053 114.795L71.3122 114.284L72.0284 113.261L72.54 112.238L73.1539 110.805L73.2562 109.27L73.5631 108.043V107.94V107.736L74.6886 106.508L75.7117 105.28L76.6325 104.155L77.451 103.132L78.0649 102.62Z" fill="white"/>
<path fill-rule="evenodd" clip-rule="evenodd" d="M74.1771 100.062C74.1771 102.415 73.9725 104.769 73.5632 107.122V108.043L73.2563 109.27L73.1539 110.907L72.6424 112.34L72.0285 113.363L71.3123 114.284L71.0054 114.795L70.3915 115.716L69.6753 116.228L69.8799 115.512V114.591V113.363L70.0845 112.033L70.1869 110.907L70.3915 109.27L70.4938 108.35C71.21 105.28 72.9493 102.825 74.1771 100.062Z" fill="white"/>
<path fill-rule="evenodd" clip-rule="evenodd" d="M73.7678 114.591L74.3817 115C76.7349 115.307 78.1673 115.307 80.2135 116.432C82.4644 117.66 84.4084 119.502 86.7616 120.73C84.1014 120.627 81.5436 119.809 79.0881 118.786C77.1441 117.967 75.5071 116.535 73.8701 115.307L73.3586 115L73.1539 114.795L73.3586 114.488L73.7678 114.591Z" fill="white"/>
<path fill-rule="evenodd" clip-rule="evenodd" d="M83.6922 121.343C81.9529 120.218 79.395 118.99 77.2465 118.376C73.4609 117.251 70.6984 117.558 69.573 117.251L69.266 117.149L69.3683 116.842H68.9591L68.5498 116.944L68.1406 117.149L67.7313 117.353L68.4475 117.558L69.266 117.865C70.3915 118.274 73.1539 120.013 76.9395 120.525C79.2927 120.832 81.5436 120.832 83.6922 121.343Z" fill="white"/>
<path fill-rule="evenodd" clip-rule="evenodd" d="M64.7643 118.479H65.4805L65.8897 118.581L66.1967 118.683L66.6059 118.888L66.8105 118.99V119.093L66.7082 119.195L66.299 119.093L65.992 118.99L65.6851 118.888H65.3782H64.8666L64.7643 118.479Z" fill="white"/>
<path fill-rule="evenodd" clip-rule="evenodd" d="M68.9591 118.99C68.1406 118.376 67.0151 118.274 66.5036 118.786L66.6059 118.888L66.8105 118.99V119.093H66.6059L66.299 118.99C66.0943 119.604 66.299 120.423 67.0151 121.036C67.8337 121.753 68.9591 121.855 69.4707 121.241C69.9822 120.627 69.7776 119.706 68.9591 118.99Z" fill="white"/>
<path fill-rule="evenodd" clip-rule="evenodd" d="M85.5338 108.145L85.4315 108.452L85.0222 108.247H84.613H84.2037H83.8968H83.6921L83.9991 107.736L84.306 107.838H84.7153L85.0222 107.94L85.4315 108.043L85.5338 108.145Z" fill="white"/>
<path fill-rule="evenodd" clip-rule="evenodd" d="M86.4546 107.02C85.5338 106.815 84.7153 107.224 84.4083 107.838H84.8176L85.1245 107.94L85.5338 108.145L85.7384 108.247L85.5338 108.554L85.1245 108.452H84.7153H84.4083C84.4083 109.27 85.1245 109.987 86.1476 110.089C87.1708 110.294 88.1939 109.782 88.2962 108.964C88.1939 107.94 87.4777 107.122 86.4546 107.02Z" fill="white"/>
<path fill-rule="evenodd" clip-rule="evenodd" d="M75.9164 127.175L75.3025 126.561L74.6886 126.254L73.9724 125.641L73.5632 125.231L73.1539 124.617L72.7447 124.208L72.1308 123.697H71.8239L71.21 123.594L70.3915 123.39L70.4938 123.799L70.6984 124.617L71.3123 125.334L72.2331 126.254H72.7447L73.7678 126.459L74.6886 126.766L75.9164 127.175Z" fill="white"/>
<path fill-rule="evenodd" clip-rule="evenodd" d="M70.5961 123.492H70.3915L70.4938 123.901L70.6984 124.72L71.3123 125.436L72.2331 126.254L71.7215 126.05L69.3683 125.231L67.1174 124.617C67.3221 124.004 67.7313 123.492 68.1406 123.083L68.5498 123.287L69.266 123.492H69.9822H70.5961ZM63.7411 122.776L63.4342 123.492L62.3087 123.185L59.6486 122.264L58.4208 121.855L58.2162 121.446V120.832V120.423V120.218L59.9555 120.832L60.5694 121.139L61.081 121.446C61.8995 121.65 62.8203 121.855 63.7411 122.06L64.048 122.162L63.7411 122.776Z" fill="white"/>
<path fill-rule="evenodd" clip-rule="evenodd" d="M73.6655 126.05L73.3586 125.334L72.9493 124.924L72.4378 124.617L71.6193 124.208L71.21 124.004H70.9031V124.208L71.1077 124.617L71.4146 125.027L71.7216 125.436L72.3355 125.743L72.9493 125.947L73.3586 126.05H73.6655Z" fill="white"/>
<path fill-rule="evenodd" clip-rule="evenodd" d="M73.9724 130.961C73.4609 129.835 72.4377 129.426 71.5169 128.812C71.3123 128.608 71.1076 126.766 70.8007 125.845L69.266 125.334L67.1174 124.72H67.0151L66.6059 125.845L66.4012 126.459C67.0151 127.278 67.0151 128.71 67.2197 129.631C67.4244 130.449 68.7544 131.063 68.9591 132.802C69.1637 132.189 70.3915 131.268 70.4938 130.654C71.6192 130.654 72.9493 130.552 73.9724 130.961Z" fill="white"/>
<path fill-rule="evenodd" clip-rule="evenodd" d="M64.5596 130.449L64.7642 130.347L65.4804 129.119L66.0943 127.175L66.6058 125.743L67.0151 124.617C67.2197 124.004 67.629 123.492 68.0382 123.083C68.0382 123.083 68.0382 123.083 68.1405 122.98C68.7544 122.571 69.266 122.673 69.7775 123.492L69.5729 122.878C69.4706 122.367 68.2428 122.264 67.7313 122.264C66.7081 122.264 66.0943 122.06 65.0711 121.855C64.4573 121.753 64.3549 121.548 64.048 122.06L63.9457 122.367L63.7411 122.878L63.3318 123.799C63.0249 124.617 62.2064 126.05 62.2064 126.152C62.2064 126.459 62.2064 126.664 62.0017 126.868L61.7971 126.971L62.3087 127.891L62.8203 129.017L63.4341 129.938L63.7411 130.449L64.1503 130.552L64.7642 130.654L64.5596 130.449Z" fill="white"/>
<path fill-rule="evenodd" clip-rule="evenodd" d="M59.5462 122.264C60.2624 123.901 61.1832 125.436 61.7971 126.664L62.411 127.789L62.9225 128.915L63.5364 129.835L63.8434 130.347L64.2526 130.449L64.8665 130.552L64.6619 130.756C63.741 131.165 63.4341 130.961 62.5133 130.756C61.4902 130.552 60.6717 131.268 60.0578 130.245C59.4439 129.426 58.2161 127.789 58.2161 127.38C58.1138 125.948 57.8069 124.515 57.8069 122.98H58.1138H58.3185L58.6254 122.776L58.83 122.469L58.6254 122.162L58.4208 121.855L59.137 122.06L59.5462 122.264Z" fill="white"/>
<path fill-rule="evenodd" clip-rule="evenodd" d="M59.5463 120.013L59.444 119.706L59.0347 119.195L58.6255 118.99L58.2162 118.888L57.7046 118.786H57.1931L56.6815 118.581L56.3746 118.479L56.0676 118.581L55.5561 119.093L55.4538 119.604L55.3514 120.218V120.832L55.4538 121.343L55.5561 121.957L55.863 122.264L56.3746 122.571L56.9885 122.878H57.3977H57.9093H58.3185L58.6255 122.776L58.8301 122.469L58.6255 122.162L58.3185 121.548L58.2162 120.934V120.525V120.116L58.5232 119.706L58.9324 119.604L59.137 119.706L59.5463 120.013Z" fill="white"/>
<path fill-rule="evenodd" clip-rule="evenodd" d="M58.83 119.093L58.7277 118.99H58.3185L57.8069 118.786H57.193L56.8861 118.683V117.967V117.66L56.9884 117.558L57.2953 116.535C57.9092 114.591 58.3185 112.544 58.83 110.396C58.83 110.089 59.137 109.884 59.4439 109.782C60.774 109.475 63.5364 108.657 64.048 108.554C64.4573 108.452 64.6619 108.452 64.7642 108.759C65.2758 109.577 66.1966 110.396 66.9128 110.907C67.7313 111.521 67.8336 114.386 67.322 115.102C66.6058 116.023 65.992 116.535 65.0711 117.251L64.4573 117.762L64.048 117.865L62.6156 118.581L61.0809 119.399L60.1601 119.706L61.1832 119.195L62.1041 118.683L62.9226 118.172L63.5364 117.865L64.5596 117.149L65.2758 116.637L65.7873 116.33L66.4012 115.819L67.1174 115L67.322 114.284L67.5267 113.465L67.4243 112.544L67.2197 111.931L66.9128 111.419L66.4012 111.214L65.5827 111.317L64.4573 111.828L63.5364 112.238L62.6156 112.749L61.8994 113.67L61.1832 115L60.2624 116.637L59.6485 117.762L58.83 119.093ZM56.4768 118.172V118.479H56.3745L56.4768 117.865V118.172Z" fill="white"/>
<path fill-rule="evenodd" clip-rule="evenodd" d="M58.83 119.093L58.7277 118.99H58.3185L57.8069 118.786H57.193L56.8861 118.683V117.967V117.66L56.9884 117.558L57.2953 116.535C57.9092 114.591 58.3185 112.544 58.83 110.396C58.83 110.089 59.137 109.884 59.4439 109.782C60.774 109.475 63.5364 108.657 64.048 108.554C64.4573 108.452 64.6619 108.452 64.7642 108.759C65.2758 109.577 66.1966 110.396 66.9128 110.907C67.7313 111.521 67.8336 114.386 67.322 115.102C66.6058 116.023 65.992 116.535 65.0711 117.251L64.4573 117.762L64.048 117.865L62.6156 118.581L61.0809 119.399L60.1601 119.706L61.1832 119.195L62.1041 118.683L62.9226 118.172L63.5364 117.865L64.5596 117.149L65.2758 116.637L65.7873 116.33L66.4012 115.819L67.1174 115L67.322 114.284L67.5267 113.465L67.4243 112.544L67.2197 111.931L66.9128 111.419L66.4012 111.214L65.5827 111.317L64.4573 111.828L63.5364 112.238L62.6156 112.749L61.8994 113.67L61.1832 115L60.2624 116.637L59.6485 117.762L58.83 119.093ZM56.4768 118.172V118.479H56.3745L56.4768 117.865V118.172Z" fill="white"/>
<path fill-rule="evenodd" clip-rule="evenodd" d="M63.3318 112.442C64.048 112.851 64.2526 113.977 63.7411 114.488C62.7179 115.409 61.6948 116.432 60.5694 117.149L60.1601 117.456L59.7509 117.66L59.5462 117.967L58.83 118.99L59.137 119.195L59.5462 119.604V119.809V119.911L59.137 119.604L58.9324 119.502H58.5231L58.3185 119.809L58.6254 120.013H59.2393L59.9555 119.809L60.0578 119.706L61.0809 119.195L62.0018 118.683L62.8203 118.172L63.4341 117.865L64.4573 117.149L65.1735 116.637L65.685 116.33L66.2989 115.819L67.0151 115L67.2197 114.284L67.4244 113.465L67.322 112.544L67.1174 111.931L66.8105 111.419L66.2989 111.214L65.4804 111.317L64.355 111.828L63.3318 112.442Z" fill="white"/>
<path fill-rule="evenodd" clip-rule="evenodd" d="M54.3283 117.66L54.0213 116.944C52.9982 115.409 52.282 113.977 50.8496 112.647V112.544L50.7473 111.521L50.5427 110.294L50.0311 109.168L50.1334 107.94C50.2358 107.531 51.4635 107.224 51.8728 107.838L52.3843 108.554L52.9982 109.373L53.5098 110.498L54.0213 111.01L54.7375 111.624L55.3514 112.238L55.7607 113.363L56.3745 114.693L56.5792 116.023L56.6815 117.251L56.4769 118.376V118.683H56.3745L56.0676 118.786L55.863 118.99L55.1468 118.581L54.3283 117.66Z" fill="white"/>
<path fill-rule="evenodd" clip-rule="evenodd" d="M55.9653 118.786L55.2491 118.376L54.0213 117.456C52.282 115.921 51.1566 115 50.8496 112.647V112.544L50.7473 111.521L50.5427 110.294L50.0311 109.168C50.0311 108.759 50.0311 108.35 50.1335 107.94C50.2358 107.531 51.4635 107.224 51.8728 107.838L52.3843 108.554L52.9982 109.373L53.5098 110.498L54.0213 111.01L54.7375 111.624L55.3514 112.238L55.7607 113.363L56.3745 114.693L56.5792 116.023L56.6815 117.251L56.4769 118.376V118.683L56.6815 118.786H56.8861V118.069L56.9884 116.842C56.8861 114.693 56.5792 113.056 54.9422 111.317C54.1237 110.601 53.6121 109.373 53.2028 108.964C52.589 108.043 52.1797 107.531 51.0543 107.327C50.2358 107.429 50.3381 107.429 49.7242 108.145C48.9057 108.759 48.0872 109.066 47.0641 109.27C46.7571 109.27 46.6548 109.475 46.7571 109.782C46.8594 111.317 46.6548 113.977 46.8594 114.693C46.9617 115.102 48.2918 116.33 49.1103 116.944L49.6219 117.558L50.0311 117.865L50.7473 118.172L51.6681 118.376L52.0774 118.581L52.4867 118.786H52.9982L53.4075 118.99L54.1237 119.297L55.1468 119.911H55.4537V120.013L55.556 119.502L55.9653 118.786Z" fill="white"/>
<path fill-rule="evenodd" clip-rule="evenodd" d="M57.2953 122.878V123.39V124.31V124.822L57.193 125.538V126.05L56.9884 126.868L56.6815 127.38L55.9653 128.198L55.0444 129.324L54.2259 130.142L53.8167 130.449L53.1005 130.552H52.1797L51.0542 130.347H50.2357H49.3149L48.8033 130.245L49.9288 130.04L50.645 129.835L51.4635 129.119L52.1797 128.096L53.4074 126.459L54.3283 124.924L55.1468 123.492L55.4537 122.571L55.556 121.957L55.863 122.264L56.3745 122.571L56.9884 122.878H57.2953Z" fill="white"/>
<path fill-rule="evenodd" clip-rule="evenodd" d="M44.1993 123.083C44.1993 122.878 44.3017 122.162 44.7109 122.162C46.041 122.162 47.1664 122.06 48.1896 121.65C48.5988 121.548 48.9057 121.65 49.1104 122.264L49.6219 123.697L49.8266 124.617L50.0312 125.436L50.3381 126.561L50.8497 127.994L51.1566 128.915L51.4636 129.222L50.7474 130.04L50.0312 130.245L48.8034 130.449L49.1104 130.552H48.7011L48.2919 130.347L47.7803 129.835L47.1664 129.222L46.7572 128.301L46.3479 127.38L45.9387 126.561L45.6317 125.231L45.4271 124.31L45.3248 123.492V122.98C45.2225 122.673 44.7109 122.571 44.5063 122.776C44.5063 122.571 44.3017 122.98 44.1993 123.083Z" fill="white"/>
<path fill-rule="evenodd" clip-rule="evenodd" d="M46.0409 132.802C46.4502 131.984 46.3479 130.654 46.9618 129.528L47.1664 129.119L46.7571 128.198L46.3479 127.278L45.9386 126.459L45.6317 125.129L45.5294 124.413V124.617L44.8132 124.822C44.8132 124.822 44.3016 124.924 44.1993 124.924H43.8924V125.641L43.7901 126.766C43.7901 127.585 43.3808 128.608 42.9716 129.222C42.5623 130.04 41.8461 130.245 41.6415 131.37C43.3808 130.756 44.5062 130.552 44.9155 129.733V130.245C45.0178 130.859 45.9386 131.677 46.0409 132.802Z" fill="white"/>
<path fill-rule="evenodd" clip-rule="evenodd" d="M55.556 121.957L55.3514 121.343V121.139H54.9422L53.8167 121.446L52.282 121.753L50.8496 121.957L49.008 122.162H48.9057L49.008 122.264L49.5196 123.594L49.9288 123.492L50.7473 123.39L51.7704 123.287H52.4866L52.7936 122.878H53.4075L54.1236 122.571L55.556 121.957ZM45.5293 124.106L45.427 123.287V122.98C44.8131 123.083 44.4039 123.185 43.8923 123.185C42.5623 122.98 42.4599 123.083 41.5391 124.004C40.8229 124.617 40.516 125.231 39.9021 125.948L39.1859 126.868L38.4697 127.789L39.3905 127.175C40.3114 126.561 41.2322 125.948 42.3576 125.845C42.5623 125.845 43.4831 125.436 43.4831 125.436L43.9946 125.129L44.1993 124.924C44.1993 124.924 44.4039 124.924 44.6085 124.924C44.8131 124.924 45.2224 124.822 45.2224 124.822L45.9386 124.617L45.5293 124.106Z" fill="white"/>
<path fill-rule="evenodd" clip-rule="evenodd" d="M55.556 121.957L55.3514 121.343V121.139H54.9422L53.8167 121.446L52.282 121.753L50.8496 121.957L49.008 122.162H48.9057L49.008 122.264L49.5196 123.594L49.9288 123.492L50.7473 123.39L51.7704 123.287H52.4866L52.7936 122.878H53.4075L54.1236 122.571L55.556 121.957ZM45.5293 124.106L45.427 123.287V122.98C44.8131 123.083 44.4039 123.185 43.8923 123.185C42.5623 122.98 42.4599 123.083 41.5391 124.004C40.8229 124.617 40.516 125.231 39.9021 125.948L39.1859 126.868L38.4697 127.789L39.3905 127.175C40.3114 126.561 41.2322 125.948 42.3576 125.845C42.5623 125.845 43.4831 125.436 43.4831 125.436L43.9946 125.129L44.1993 124.924C44.1993 124.924 44.4039 124.924 44.6085 124.924C44.8131 124.924 45.2224 124.822 45.2224 124.822L45.9386 124.617L45.5293 124.106Z" fill="white"/>
<path fill-rule="evenodd" clip-rule="evenodd" d="M43.4831 123.799C43.6878 124.72 42.767 124.924 42.1531 125.129C41.2323 125.436 40.823 125.641 40.1068 126.254C40.7207 125.334 41.1299 124.72 41.9484 123.901C42.1531 123.697 43.2785 122.98 43.4831 123.799Z" fill="white"/>
<path fill-rule="evenodd" clip-rule="evenodd" d="M46.8594 118.172C46.0409 118.172 45.427 118.786 45.427 119.604C45.427 120.423 46.0409 121.036 46.9617 121.036C47.7802 121.036 48.4964 120.423 48.4964 119.604C48.4964 118.888 47.9848 118.274 47.371 118.172H46.8594Z" fill="white"/>
<path fill-rule="evenodd" clip-rule="evenodd" d="M47.7802 117.353L47.5756 117.558L47.3709 117.762L47.2686 118.069V118.581L47.1663 118.786H46.9617L46.8594 118.581V118.172V117.967L47.064 117.558L47.2686 117.353L47.4733 117.251H47.7802V117.353Z" fill="white"/>
<path fill-rule="evenodd" clip-rule="evenodd" d="M27.113 103.95C26.3968 103.95 25.783 104.564 25.783 105.28C25.783 105.996 26.3968 106.61 27.113 106.61C27.7269 106.61 28.1362 106.201 28.3408 105.689L28.4431 105.383C28.4431 105.383 28.4431 105.28 28.4431 105.178C28.4431 104.462 27.8292 103.95 27.113 103.95Z" fill="white"/>
<path fill-rule="evenodd" clip-rule="evenodd" d="M31.7171 106.61L31.1032 106.303L30.5916 106.099L29.8754 105.792L29.0569 105.587L28.2384 105.383L27.8292 105.076L27.5222 105.178V105.485L27.7268 105.69H28.2384L29.2615 105.996L30.4893 106.406L31.7171 106.61Z" fill="white"/>
<path fill-rule="evenodd" clip-rule="evenodd" d="M30.1823 104.973L30.08 104.666L29.9777 104.155V103.234L30.08 102.313L30.2847 101.597V101.495L30.1823 101.392L30.08 101.597L29.9777 102.006L29.7731 102.62L29.6708 103.234V103.643V104.155L29.7731 104.462L30.1823 104.973Z" fill="white"/>
<path fill-rule="evenodd" clip-rule="evenodd" d="M30.6939 99.96C29.9778 99.96 29.4662 100.574 29.4662 101.188C29.4662 101.495 29.6708 101.904 29.8754 102.109L30.0801 102.211C30.2847 102.313 30.4893 102.415 30.6939 102.415C31.3078 102.415 31.9217 101.904 31.9217 101.188C31.9217 100.472 31.3078 99.96 30.6939 99.96Z" fill="white"/>
<path fill-rule="evenodd" clip-rule="evenodd" d="M13.9146 82.976C13.1984 82.976 12.4822 83.5899 12.4822 84.3061C12.4822 85.0222 13.1984 85.6361 13.9146 85.6361C14.5284 85.6361 15.04 85.3292 15.2446 84.9199L15.3469 84.613C15.3469 84.5107 15.3469 84.4084 15.3469 84.3061C15.4493 83.4876 14.7331 82.976 13.9146 82.976Z" fill="white"/>
<path fill-rule="evenodd" clip-rule="evenodd" d="M18.5187 86.9662V87.1708L18.314 87.2731L18.1094 87.1708L17.7001 86.6592L16.984 86.0454L16.1655 85.4315L15.4493 84.9199L15.04 84.8176L14.6308 84.7153L14.5284 84.2037L14.7331 84.1014L14.9377 84.4084L15.3469 84.613L15.9608 84.8176L16.7793 85.3292L17.2909 85.8407L17.8025 86.3523L18.5187 86.9662Z" fill="white"/>
<path fill-rule="evenodd" clip-rule="evenodd" d="M15.4492 80.5204C14.6307 80.5204 13.9146 81.1343 13.9146 81.7482C13.9146 82.4644 14.6307 83.0783 15.4492 83.0783C15.8585 83.0783 16.1654 82.976 16.4724 82.7713L16.677 82.4644C16.8816 82.2598 16.8816 82.0551 16.8816 81.7482C16.8816 81.1343 16.2678 80.5204 15.4492 80.5204Z" fill="white"/>
<path fill-rule="evenodd" clip-rule="evenodd" d="M17.4956 83.9991L17.0863 83.4875L16.6771 83.0783L16.3701 82.7713L15.9609 82.5667L15.7562 82.4644L15.6539 82.1575L15.8586 82.0551H16.0632L16.1655 82.2598L16.6771 82.669L16.984 83.0783L17.4956 83.4875V83.9991Z" fill="white"/>
<path fill-rule="evenodd" clip-rule="evenodd" d="M19.5418 78.8835C18.7233 78.8835 18.0071 79.4973 18.0071 80.2135C18.0071 80.7251 18.4163 81.1343 18.8256 81.339L19.1325 81.4413C19.2348 81.4413 19.3372 81.4413 19.5418 81.4413C20.3603 81.4413 21.0765 80.8274 21.0765 80.1112C20.9742 79.4973 20.3603 78.8835 19.5418 78.8835Z" fill="white"/>
<path fill-rule="evenodd" clip-rule="evenodd" d="M19.2348 81.1343V80.9297L19.1325 80.8274H18.8256V81.032L18.6209 81.5436L18.4163 82.2598L18.314 82.8737L18.2117 83.2829L18.1094 83.9991V84.5107H18.314V84.2037L18.5186 83.5898L18.6209 82.8737L18.8256 81.9528L19.0302 81.339L19.2348 81.1343Z" fill="white"/>
<path fill-rule="evenodd" clip-rule="evenodd" d="M20.3604 63.2295C19.6442 63.2295 18.928 62.6157 18.928 61.7972C18.928 60.9787 19.5419 60.3648 20.3604 60.3648C21.0766 60.3648 21.7927 60.9787 21.7927 61.7972C21.7927 62.6157 21.1789 63.2295 20.3604 63.2295Z" fill="white"/>
<path fill-rule="evenodd" clip-rule="evenodd" d="M19.1326 62.411H18.5187L18.2117 62.718L17.9048 63.0249L17.8025 62.6156L18.3141 62.1041L18.7233 61.7971L18.9279 61.6948V61.7971C19.0302 62.0018 19.0302 62.2064 19.1326 62.411Z" fill="white"/>
<path fill-rule="evenodd" clip-rule="evenodd" d="M13.1984 60.1601C12.4822 60.1601 11.8683 60.8763 11.8683 61.6948C11.8683 62.5133 12.4822 63.2295 13.1984 63.2295C13.8122 63.2295 14.2215 62.8203 14.4261 62.3087L14.6307 62.0018V61.7971C14.5284 60.774 13.9145 60.1601 13.1984 60.1601Z" fill="white"/>
<path fill-rule="evenodd" clip-rule="evenodd" d="M15.9608 63.5365L15.7562 63.0249L15.4492 62.6157L14.9377 62.2064L14.5284 62.0018L14.3238 61.5925L14.0168 61.7972V62.1041L14.4261 62.2064L14.8354 62.411L15.3469 62.718L15.5515 63.0249L15.7562 63.3319V63.7411L15.8585 64.1504C15.8585 64.0481 15.8585 63.6388 15.9608 63.5365Z" fill="white"/>
<path fill-rule="evenodd" clip-rule="evenodd" d="M89.3193 39.5952C89.9332 37.1397 90.4448 34.6842 90.7517 32.2286C90.854 30.6939 91.161 29.2616 91.3656 27.7269" fill="white"/>
<path fill-rule="evenodd" clip-rule="evenodd" d="M89.0125 40.0045C88.0916 36.2189 86.1477 32.7402 84.2037 29.3639L89.0125 40.0045Z" fill="white"/>
<path fill-rule="evenodd" clip-rule="evenodd" d="M95.9698 38.5721L96.0721 41.3345V44.1993L95.9698 47.1664V49.6219V51.7704V54.1237L95.8674 54.5329" fill="white"/>
<path fill-rule="evenodd" clip-rule="evenodd" d="M95.2535 54.3283L94.3327 53.1005L93.4119 51.9751L92.4911 50.952L91.4679 49.7242L90.1379 48.3941L89.1147 47.4733L87.58 46.1432L86.4546 45.0178L85.8407 44.5062L85.1245 43.79" fill="white"/>
<path fill-rule="evenodd" clip-rule="evenodd" d="M93.7188 53.5098L92.2864 52.6913L91.0587 51.7704L89.3193 50.9519L87.6823 49.9288L86.0453 48.9057L84.306 47.8825L82.8736 47.2687L81.7482 46.6548" fill="white"/>
<path fill-rule="evenodd" clip-rule="evenodd" d="M98.323 57.2954C99.4484 55.1468 100.165 53.2029 100.881 50.952C101.392 49.2126 101.699 47.5756 102.109 45.8363" fill="white"/>
<path fill-rule="evenodd" clip-rule="evenodd" d="M102.006 58.7278L101.597 60.2624L101.085 62.6157L100.471 64.8665L99.9599 66.8105L99.346 69.4706L99.1414 70.3915L98.8345 71.8238" fill="white"/>
<path fill-rule="evenodd" clip-rule="evenodd" d="M95.7651 58.4208L96.8906 61.2856L97.4021 63.1272L98.016 65.2758L98.323 67.2197L98.4253 69.266V71.0053V72.2331" fill="white"/>
<path fill-rule="evenodd" clip-rule="evenodd" d="M97.5045 72.847L96.7883 71.3123L96.0721 69.8799L95.3559 68.4475L94.1281 66.9128L93.4119 65.7874L92.3888 64.6619L91.468 63.5365L90.2402 61.5925" fill="white"/>
<path fill-rule="evenodd" clip-rule="evenodd" d="M97.6068 74.6886L97.2998 73.7678L96.8906 73.1539L96.379 72.54L95.7651 72.2331L94.5374 71.4146L92.9004 70.2891L91.9796 69.9822L91.3657 69.3683L89.7287 68.6521L88.7055 67.8336L87.4778 66.6059" fill="white"/>
<path fill-rule="evenodd" clip-rule="evenodd" d="M97.0952 80.6228L96.1744 79.1904L94.6397 77.0418L93.0027 75.0979L91.2634 73.0516L89.524 70.6984" fill="white"/>
<path fill-rule="evenodd" clip-rule="evenodd" d="M106.713 59.6486L104.155 64.9688L103.439 66.2989L101.904 68.7544L100.267 71.1076L99.96 71.9261" fill="white"/>
<path fill-rule="evenodd" clip-rule="evenodd" d="M113.875 66.8105C110.089 69.0614 106.201 70.2891 102.211 71.9261L101.188 72.4377L100.676 72.847" fill="white"/>
<path fill-rule="evenodd" clip-rule="evenodd" d="M95.5605 82.2598L94.8443 81.4413L93.9234 80.3158L92.6957 79.0881L91.4679 78.065L90.2402 76.8372L89.3193 75.9164L87.887 74.7909" fill="white"/>
<path fill-rule="evenodd" clip-rule="evenodd" d="M98.6299 81.7482L100.881 80.1112L102.313 78.8835L104.564 77.3488L106.713 75.7118L108.452 74.3817L109.066 73.8701" fill="white"/>
<path fill-rule="evenodd" clip-rule="evenodd" d="M103.643 92.6957L101.392 93.8212L99.3461 95.0489L97.4022 95.9698L94.6397 97.1975L92.5935 98.323L90.8541 98.9368L89.4218 99.653" fill="white"/>
<path fill-rule="evenodd" clip-rule="evenodd" d="M91.3656 96.5836L92.1841 95.6628L93.5142 94.3327L94.9466 92.6957L96.3789 91.0587L97.709 89.3194L99.1414 87.3755L100.267 85.5338L101.392 83.7945" fill="white"/>
<path fill-rule="evenodd" clip-rule="evenodd" d="M90.4448 96.0721L91.161 93.3096L91.468 89.9333V87.1708L91.5703 85.1245L91.468 83.1806" fill="white"/>
<path fill-rule="evenodd" clip-rule="evenodd" d="M89.6263 95.5605L89.524 92.9004L89.1147 90.1379L88.7055 87.2731L87.7847 82.1575" fill="white"/>
<path fill-rule="evenodd" clip-rule="evenodd" d="M88.3986 97.2998L87.5801 95.4582L87.0685 93.3096L86.0454 90.8541L85.3292 88.7055L84.7153 86.9662L84.306 85.0222" fill="white"/>
<path fill-rule="evenodd" clip-rule="evenodd" d="M100.676 103.643L98.6299 103.848L96.379 103.95L94.0258 104.052L91.5703 104.257L88.8078 104.359L85.5338 104.462" fill="white"/>
<path fill-rule="evenodd" clip-rule="evenodd" d="M86.0454 100.778L84.8176 103.746L83.1806 106.099L81.9529 107.838L80.7251 109.68L79.4973 111.112L78.065 112.544L77.1441 113.261L76.6326 113.465" fill="white"/>
<path fill-rule="evenodd" clip-rule="evenodd" d="M82.2598 98.7322L81.032 102.722L80.4181 104.666L80.0089 106.61L79.5996 108.964" fill="white"/>
<path fill-rule="evenodd" clip-rule="evenodd" d="M75.5071 113.056L76.9395 109.782L77.1441 108.35L77.8603 105.076L78.3718 102.825L78.6788 99.653" fill="white"/>
<path fill-rule="evenodd" clip-rule="evenodd" d="M90.4449 111.419L85.2269 111.931H83.4876H81.8506H79.8043" fill="white"/>
<path fill-rule="evenodd" clip-rule="evenodd" d="M88.7055 117.251L84.306 115.307L81.6459 114.079L80.0088 113.363L78.3718 112.954" fill="white"/>
<path fill-rule="evenodd" clip-rule="evenodd" d="M77.4511 103.643L76.0187 106.61L75.0979 107.94L74.0747 109.884L73.1539 111.01" fill="white"/>
<path fill-rule="evenodd" clip-rule="evenodd" d="M70.9031 114.284L71.3123 112.135L72.0285 109.168L72.6424 106.815L73.154 104.462L73.9725 100.778" fill="white"/>
<path fill-rule="evenodd" clip-rule="evenodd" d="M85.7385 120.32L82.6691 118.888L80.2135 117.762L78.2696 116.739L77.0418 116.125L75.6094 115.614L73.8701 115" fill="white"/>
<path fill-rule="evenodd" clip-rule="evenodd" d="M81.8505 120.73L78.5765 119.809L75.6094 119.093L73.3585 118.581L71.0053 117.865L69.5729 117.558L68.5498 117.251" fill="white"/>
<path fill-rule="evenodd" clip-rule="evenodd" d="M98.1183 72.0285L97.9137 70.4938L97.0952 68.0382L96.379 66.4012L95.5605 64.5596L95.049 63.5365" fill="white"/>
<path fill-rule="evenodd" clip-rule="evenodd" d="M96.8906 109.68L95.5606 108.964L94.2305 108.247L92.9004 107.633L91.6727 107.02L90.4449 106.406L89.2171 106.099L87.8871 105.587L87.2732 105.28" fill="white"/>
<path fill-rule="evenodd" clip-rule="evenodd" d="M55.3515 120.832H54.533C53.2029 120.218 51.8728 119.706 50.4404 119.399L49.8266 118.888L48.4965 118.376L47.5757 117.66L47.678 117.456L47.8826 117.251V117.149H47.5757L47.371 117.251L47.2687 117.456L45.0178 116.535L44.5063 116.125L44.3016 116.023L44.404 115.921L44.8132 115.614L44.6086 115.409L44.097 115.512L43.7901 115.716L43.5854 115.614L42.7669 115.205L41.6415 114.693L42.2554 114.488L42.9716 114.386L41.7438 114.181L41.3346 114.079L40.3114 113.67H40.1068H41.0276L42.7669 113.977H43.0739L42.6646 113.465L42.3577 113.056L41.9484 112.749L41.8461 112.238L41.4369 112.033L41.3346 111.828L41.0276 111.624V111.214L40.7207 110.601V110.089L40.3114 109.373L40.2091 108.759L39.7999 108.043V107.122L39.9022 106.508L40.0045 105.28L39.5952 104.769V103.439V103.029C39.5952 103.029 39.5952 103.029 39.4929 102.927L39.5952 102.313L39.6975 101.392V100.369L39.4929 99.1414L40.2091 100.062L40.823 100.881L41.2322 101.802L41.9484 102.415L42.0507 102.927L42.6646 103.336L42.8693 103.746L43.2785 104.564L43.8924 104.666L44.1993 105.485L44.5063 105.689L44.9155 106.201L45.2225 107.02V107.429H45.4271L45.5294 108.145L45.6317 108.657L45.734 109.475V110.294V111.01V111.624L45.6317 112.238L45.734 112.851L45.5294 113.772L45.3248 114.591V115.102C46.4502 115.716 47.7803 116.33 48.8034 117.046H49.008L49.4173 117.353L50.1335 117.66L51.0543 117.865L51.4636 118.069L51.8728 118.274H52.4867L52.8959 118.479L53.6121 118.786L54.6353 119.399H54.9422V119.502L54.8399 120.116V120.832H55.3515Z" fill="white"/>
<path fill-rule="evenodd" clip-rule="evenodd" d="M45.427 115.102L44.6085 113.158L43.6877 111.112L43.0738 109.373L42.5623 107.327L42.0507 105.587L41.5391 104.257L41.1299 102.62L40.516 100.778" fill="white"/>
<path d="M40.1068 112.442L40.5161 112.749L40.7207 112.851L41.3346 113.158L42.2554 113.465L41.4369 112.954L40.6184 112.34L39.7999 111.931L39.4929 111.419L39.6975 111.931L40.1068 112.442Z" fill="white"/>
<path d="M39.4929 111.419L39.3905 111.317L38.879 111.01L38.4697 110.703L38.7767 111.01L39.4929 111.419Z" fill="white"/>
<path d="M38.3675 100.778L38.1629 100.676L37.8559 100.165L37.6513 99.7553L37.0374 99.5507L36.6282 98.9368L36.3212 98.7322L36.1166 99.653V100.472V101.29V101.904L36.3212 102.62L35.8097 102.722L36.0143 103.234V104.257V104.973L36.4235 105.894L36.6282 106.815L36.7305 107.327L37.1397 108.145L37.3444 108.554L38.0606 110.396L38.4698 110.703L38.8791 111.01L39.3906 111.317L39.4929 111.419L39.7999 111.931L40.6184 112.34L41.4369 112.954L42.2554 113.465L41.3346 113.158L40.7207 112.851L40.5161 112.749L40.1068 112.442L39.6976 111.931L39.4929 111.419L38.7767 111.01L38.4698 110.703L38.0606 110.396L37.549 110.191L36.9351 109.68L36.1166 109.27L35.605 109.066L35.0935 108.964L34.4796 108.861L33.968 108.554L33.3541 108.35L32.7403 108.247L32.2287 108.145H31.5125L31.1033 107.94L30.4894 107.633H30.1824H29.5686H29.057L28.7501 107.327L28.0339 107.429L27.42 107.633H26.6015L25.9876 107.429H25.3737L24.8622 107.327L24.3506 107.224L25.2714 108.247L25.6807 108.554L25.9876 108.964L26.8061 109.475L27.42 109.884L27.6246 110.191L27.9315 110.498L28.6477 110.703L29.3639 111.726H29.8755L30.1824 112.238L30.7963 112.749L31.6148 112.954L32.1264 113.465L33.3541 113.568L34.1727 113.67L35.0935 113.772L35.5027 113.977L36.4235 113.875L37.1397 114.181L38.0606 113.977L38.3675 114.079L39.3906 113.875L41.1299 113.772L42.767 114.079L43.1762 114.181L42.767 113.67L42.46 113.158L42.0508 112.851V112.34L41.6415 112.135L41.4369 111.931L41.1299 111.624V111.317L40.823 110.703V110.191L40.4138 109.475L40.3114 108.861L39.9022 108.145V107.327L40.0045 106.713L40.1068 105.383L39.6976 104.871V104.462V103.541V103.029V102.927V102.825L39.4929 102.62L39.2883 102.109L39.0837 101.597L38.7767 101.29L38.3675 100.778Z" fill="white"/>
<path fill-rule="evenodd" clip-rule="evenodd" d="M40.2091 110.805L39.2883 108.452L38.4698 106.61L37.8559 104.359L37.3443 102.109L36.8328 100.062" fill="white"/>
<path fill-rule="evenodd" clip-rule="evenodd" d="M40.1067 113.056L38.7766 112.749L36.7304 112.135L35.0934 111.112L33.354 110.703L31.5124 109.987L29.4661 109.27L27.8291 108.554L26.2944 107.94" fill="white"/>
<path fill-rule="evenodd" clip-rule="evenodd" d="M40.3114 113.875L41.3345 114.181L41.6415 114.284L42.8692 114.488L42.153 114.591L41.2322 114.898L40.1068 115.307L39.7998 115.716L39.2883 115.818L38.7767 116.023L38.3674 116.228L37.8559 116.842L37.4466 117.046L37.0374 117.149L36.4235 117.353L35.9119 117.66L35.4004 117.762L34.1726 117.967L33.661 118.376H32.6379L32.1263 118.274H31.2055H30.4893L29.6708 117.967H29.1593L28.1361 117.66L27.5222 117.251L26.9084 117.149L25.8852 116.842H25.0667L24.2482 116.432L23.2251 116.023L23.9413 115.921L24.5552 115.716L25.7829 115.307L26.8061 114.795L27.6246 114.488L28.2384 114.284L28.8523 113.977H29.3639L30.1824 113.67L30.694 113.568L32.024 113.363L32.1263 113.465L33.3541 113.568L34.1726 113.67L35.0934 113.772L35.5027 113.977L36.4235 113.875L37.1397 114.181L38.0605 113.977L38.3674 114.079L39.3906 113.875H40.3114Z" fill="white"/>
<path fill-rule="evenodd" clip-rule="evenodd" d="M39.9021 114.693L38.9813 114.795L38.1628 115L36.6281 115.102L34.991 115.205L32.9448 115.409H31.1031L29.5684 115.614L28.3407 115.716L26.7037 115.921L24.9644 116.125" fill="white"/>
<path fill-rule="evenodd" clip-rule="evenodd" d="M44.6085 115.716L44.1993 116.023L43.9947 116.33C43.9947 117.66 43.9947 118.376 43.2785 119.297L43.0738 120.013L42.8692 120.525L42.153 121.036L41.7438 121.241L41.3345 121.65L40.823 122.264L40.4137 122.367L40.0045 122.571L39.3906 122.878L38.9813 123.185H38.4698L38.0605 123.492L37.6513 123.594L36.8327 123.697L36.4235 123.901L35.8096 124.004L35.4004 124.106H34.9911L34.5819 124.31L33.661 124.515L32.9448 124.72L32.1263 124.822L32.4333 124.208L32.6379 123.697L33.0472 123.39L33.4564 122.878L33.661 122.367L34.0703 121.957L34.5819 121.446L34.7865 121.036L35.4004 120.525L35.8096 119.911L36.6281 119.604L36.9351 118.888L37.3443 118.683L38.0605 118.274L38.879 117.762L39.4929 117.558L40.6183 117.046L41.2322 116.842V116.637H42.153L42.8692 116.432L43.3808 116.228L43.79 116.023L44.3016 115.921L44.6085 115.716Z" fill="white"/>
<path fill-rule="evenodd" clip-rule="evenodd" d="M42.8692 116.739L41.0276 117.762L38.5721 119.399L36.2189 121.343L35.0934 121.957L33.3541 123.901L32.8425 124.208" fill="white"/>
<path d="M30.1824 49.9288H29.6709L28.75 50.0311H27.9315L27.42 50.1334L26.6015 50.5427H25.8853L24.9645 50.8496L23.839 51.1566L23.3274 51.5658L23.0205 51.6681L22.4066 52.3843L21.8951 52.4866C21.8951 52.4866 21.4858 52.9982 21.2812 52.9982C21.0766 53.1005 20.8719 53.3051 20.8719 53.3051L20.4627 53.7144L20.2581 54.0213V54.226L20.0534 54.4306L19.7465 54.5329L19.4395 55.1468L19.1326 55.3514L18.928 55.556L18.5187 56.2722L18.3141 56.9884L18.0072 57.6023V57.9092L17.291 58.7277L17.4956 57.6023L17.7002 56.9884L18.1095 56.2722L18.3141 55.3514L19.0303 54.4306L19.6442 53.8167L20.3604 52.7936L20.6673 51.9751L21.1789 51.3612L21.2812 50.3381L21.4858 48.9057L21.2812 48.0872L21.4858 46.4502L21.0766 45.5293L20.8719 45.0178L20.4627 44.7108V44.097V43.2785V42.46L20.3604 41.9484L20.1557 41.1299L19.6442 42.2553L19.4395 42.9715L19.0303 43.8923L18.8257 44.3016L18.5187 44.6085L18.4164 45.2224L18.2118 45.5293L18.1095 46.0409L17.8025 46.3479L17.7002 47.064L17.4956 47.5756L17.3933 47.9849L17.0863 48.5987L16.984 49.2126V50.1334L17.1887 50.7473L16.984 51.1566L16.7794 51.8728L16.984 52.6913V53.4075L17.291 54.3283L17.5979 54.8398L17.9048 55.556L17.8025 56.1699L17.3933 56.9884L16.984 57.9092L16.7794 58.9324L16.3702 59.7509L15.9609 58.8301L16.1655 57.9092V57.193L16.3702 56.3745L16.5748 55.7607L16.6771 55.863L16.8817 55.0445V54.1237L16.7794 52.9982L16.4725 52.1797L16.0632 50.9519L15.7563 50.1334L15.347 49.6219L15.1424 48.8034L14.5285 47.6779L14.0169 46.8594L13.3008 45.734L12.9938 45.0178L12.8915 44.8132L12.7892 44.7108V45.6317L12.6869 46.7571L12.4823 47.2687L12.3799 47.6779L12.073 47.9849V48.3941L12.2776 48.8034V49.1103V49.5196L12.1753 49.8265V50.2358V50.645V51.1566L12.2776 51.4635L12.1753 51.7704V51.9751L12.2776 52.1797L12.3799 52.3843L12.2776 53.4075L12.3799 53.6121V53.8167L12.6869 54.226V54.9422L12.7892 55.3514L13.3008 55.9653L13.4031 56.4769L13.8123 57.3977L14.3239 58.0116L14.9378 58.6254L15.654 58.9324L15.9609 59.6486L16.2678 60.2624V61.1833V61.7971L16.4725 62.3087L16.6771 62.5133L17.0863 62.1041V62.0018V61.3879V60.5694L17.291 59.8532L17.9048 59.0347L18.3141 58.7277L19.8488 58.6254L20.9742 58.2162L21.7927 57.9092L22.6113 57.6023L23.5321 57.2954L24.2483 56.9884L25.3737 56.1699L26.9084 55.3514L28.0339 54.226L28.6477 53.2028L29.2616 52.3843L30.2847 51.1566L30.694 50.5427L31.4102 49.7242L30.1824 49.9288Z" fill="white"/>
<path fill-rule="evenodd" clip-rule="evenodd" d="M16.1655 59.0347L16.2678 58.5231V59.4439L16.1655 59.0347ZM16.2678 58.5231L16.6771 57.9092L16.7794 56.7838L16.8817 55.863L17.291 54.9422L17.5979 54.5329V54.7375L17.8025 55.4537L17.7002 56.0676L17.3933 56.9884L16.984 57.9092L16.7794 58.9324L16.3702 59.7509L16.2678 59.4439V58.5231Z" fill="white"/>
<path fill-rule="evenodd" clip-rule="evenodd" d="M16.3702 59.7509L16.7794 58.8301L16.984 57.8069L17.3933 56.9884L17.8025 56.0676L17.9049 55.4537L17.7002 54.7375L17.5979 54.6352L17.291 55.0445L16.984 55.9653L16.8817 56.7838L16.7794 57.9092L16.2678 58.5231L16.1655 59.0347L16.3702 59.7509Z" fill="white"/>
<path fill-rule="evenodd" clip-rule="evenodd" d="M29.4661 50.5427L25.2713 52.7936L23.225 54.3283L20.4626 56.3745L18.7233 57.8069" fill="white"/>
<path fill-rule="evenodd" clip-rule="evenodd" d="M18.2118 55.1468L18.8257 52.6913L19.0303 50.2358L19.5419 47.1664L19.6442 44.8132L19.8488 43.6877" fill="white"/>
<path fill-rule="evenodd" clip-rule="evenodd" d="M15.6539 58.6254L14.733 56.3746L14.4261 53.8167L14.0169 51.4635L13.5053 49.315L13.3007 46.8594" fill="white"/>
<path fill-rule="evenodd" clip-rule="evenodd" d="M21.3835 46.3479L21.895 45.8363L22.4066 45.1201L22.9182 44.1993L23.1228 43.4831L23.7367 42.6646L24.1459 42.46L25.2714 41.1299L26.1922 40.2091L27.6246 39.4929L28.0338 39.2883L28.75 38.9813L29.0569 38.5721L29.5685 38.4697L31.1032 36.8327L32.2287 35.298L33.4564 33.3541L34.2749 31.7171L35.0934 30.7963L34.2749 31.0009L33.3541 31.2055L33.0472 31.4101L32.6379 31.7171L32.2287 31.8194L31.4101 32.331L30.4893 32.4333L30.387 32.7402H29.9778L29.4662 33.2518L28.9546 33.4564H28.6477V33.661L28.0338 33.8657L27.9315 34.2749L27.2153 34.6842V35.1957L27.0107 35.605L26.6014 35.9119L26.1922 36.5258L26.0899 36.8327V37.3443L25.7829 37.6512L25.5783 37.9582L25.476 38.2651L25.2714 38.5721V39.2883L24.8621 40.516L24.3505 41.5391H23.7367L23.4297 41.7438L22.9182 42.5623L22.5089 43.1762L22.202 43.79L21.7927 44.1993L21.5881 44.6085L21.3835 45.5294L21.1788 45.734V45.9386L21.3835 46.3479Z" fill="white"/>
<path fill-rule="evenodd" clip-rule="evenodd" d="M25.476 40.1068L26.2945 38.7767L27.3176 37.5489L28.75 36.2189L29.8754 35.0934L30.7962 34.1726L32.4332 32.9448L33.2518 32.1263" fill="white"/>
<path fill-rule="evenodd" clip-rule="evenodd" d="M68.0382 123.083C68.1405 123.083 68.1405 123.083 68.0382 123.083C68.7544 122.571 69.1637 122.673 69.6752 123.39V123.492H69.1637L68.4475 123.287L68.0382 123.083Z" fill="white"/>
<path fill-rule="evenodd" clip-rule="evenodd" d="M44.3016 123.083C44.6086 123.083 45.0178 123.083 45.4271 122.98V122.776C45.3248 122.469 44.8132 122.367 44.6086 122.571C44.5063 122.571 44.3016 122.878 44.3016 123.083Z" fill="white"/>
<path fill-rule="evenodd" clip-rule="evenodd" d="M22.6112 32.4333L22.8158 32.8425L23.3274 33.2518L23.9413 33.661V33.968L24.1459 34.6842L24.4529 34.8888V35.4004L24.5552 35.7073V36.8328L24.2482 37.6513V38.4698V39.186L24.1459 39.7998L24.0436 40.1068L23.9413 40.6183L23.6343 41.2322L23.4297 41.5392L23.1228 42.7669L22.8158 43.0739L22.202 40.9253L21.6904 40.1068V39.3906L21.2811 38.879L21.1788 37.7536L21.2811 36.9351L21.1788 36.6281V35.8096L21.4858 35.1957L21.3835 34.5819L21.4858 34.0703L21.7927 33.661L21.895 33.4564L22.4066 33.0472L22.6112 32.4333Z" fill="white"/>
<path fill-rule="evenodd" clip-rule="evenodd" d="M23.0204 41.5392L23.1227 40.4137V38.6744V37.0374L22.9181 35.1957V33.8657" fill="white"/>
<path d="M35.4004 43.1762L34.9911 42.8692L34.8888 42.6646L34.5819 42.5623L34.6842 42.6646L34.4796 42.3577L34.2749 42.153L33.8657 41.9484L33.3541 41.7438L33.1495 41.6415H32.6379L32.2287 41.5391L32.1264 41.2322L31.7171 41.0276L31.2055 40.9253L30.694 40.823L29.6708 40.7206L28.75 40.823H27.6246L27.113 41.0276L26.1922 41.3345L25.5783 41.6415L25.0667 42.0507L24.8621 42.153L24.4529 42.6646L23.4297 43.5854L22.7135 44.3016L22.202 44.6085L21.7927 45.0178L21.895 45.427L22.0997 45.3247L22.5089 44.9155L22.9182 44.8132L23.532 44.7109L24.2482 44.8132L24.9644 44.5062L25.5783 44.8132L26.1922 45.0178H27.0107L27.4199 45.2224L27.9315 45.1201L28.75 45.0178L29.2616 45.2224H29.8755H30.4893H31.3078L31.6148 44.8132H32.024H32.7402L33.2518 44.5062L33.8657 44.4039L34.4796 43.8924L34.9911 43.79L35.605 43.6877L36.0143 43.5854L35.4004 43.1762Z" fill="white"/>
<path fill-rule="evenodd" clip-rule="evenodd" d="M33.3541 43.1762L32.024 42.9715H30.694H29.3639L27.7269 43.0738L25.5783 43.5854L23.839 44.097" fill="white"/>
<path fill-rule="evenodd" clip-rule="evenodd" d="M23.7367 46.1432C22.9182 46.1432 22.3043 46.7571 22.3043 47.5756C22.3043 47.6779 22.3043 47.7803 22.3043 47.7803V48.0872C22.5089 48.7011 23.0205 49.008 23.6344 49.008C24.4529 49.008 25.0668 48.3941 25.0668 47.5756C25.2714 46.8594 24.5552 46.1432 23.7367 46.1432Z" fill="white"/>
<path fill-rule="evenodd" clip-rule="evenodd" d="M23.6343 47.5756L23.532 47.7803H23.2251L22.7135 47.8826L22.3043 48.0872L21.6904 48.5988L21.3834 48.8034L21.2811 48.3941L21.6904 48.2918L22.4066 47.7803L22.8158 47.678L23.2251 47.5756L23.4297 47.4733L23.6343 47.5756Z" fill="white"/>
<path d="M17.2909 80.5205L16.677 79.9066L16.2678 79.5996L15.4493 78.7811L14.9377 77.9626L14.6308 77.1441L14.1192 76.2233L13.6077 75.3025L12.8915 74.3817L12.3799 73.6655L11.6637 72.847L11.2544 72.2331L11.3568 72.3354L10.5383 71.21L9.61744 70.4938L8.49199 69.9822L7.16192 69.5729L6.44573 69.3683L5.62722 69.0614L4.50178 68.8568H3.99021H3.37633H2.76246L2.14858 68.7544L1.5347 68.4475L0.920818 68.3452L0 68.1406L0.102313 68.5498L0.613879 69.3683L1.12544 70.1868V70.4938L1.94395 71.3123L2.86477 72.1308L3.68327 72.9493L4.60409 73.5632L5.11566 74.2794L5.4226 74.3817L5.83185 74.7909L6.34342 75.0979L6.75267 75.2002L7.16192 75.4048L7.7758 75.814L8.18505 76.121L8.79893 76.4279L9.61744 76.6326L10.0267 76.8372L10.2313 77.0418L10.6406 77.2464L11.0498 77.4511L11.6637 77.8603H12.1753L12.9938 78.1673L13.9146 78.2696L14.7331 78.9858L15.5516 79.5996L17.1886 81.339L17.2909 80.5205Z" fill="white"/>
<path fill-rule="evenodd" clip-rule="evenodd" d="M14.5284 78.065L12.7891 77.0418L11.459 76.2233L10.4359 75.4048L9.0035 74.484L6.95724 73.3586L5.21791 71.9262L3.68321 71.0054L1.73926 69.6753L1.02307 69.0614" fill="white"/>
<path d="M26.9083 68.5498C26.9083 68.6521 26.806 68.6521 26.806 68.7544C26.806 68.7544 26.9083 68.6521 26.9083 68.5498Z" fill="white"/>
<path d="M26.7038 68.5498V68.4475L26.4991 68.7544L25.7829 68.9591L25.1691 69.4706L24.3506 69.8799L23.7367 70.2891L22.8159 71.6192L21.4858 72.847L19.5418 73.6655L18.5187 74.5863L18.4164 75.2002L18.2118 75.4048L18.1095 76.0187L17.7002 76.4279V77.5534L17.3933 78.2696L16.984 79.1904L17.1886 80.0089L17.7002 79.395L18.2118 78.8834L19.4395 78.6788L20.3603 78.2696L21.895 77.4511L23.1228 76.5302L23.7367 76.121L24.6575 75.2002L25.1691 74.2793L25.8853 72.9493L26.2945 71.9261L26.3968 70.5961C26.4991 69.8799 26.6014 69.1637 26.8061 68.3452C26.9084 68.4475 26.7038 68.5498 26.7038 68.5498ZM26.9084 68.5498C26.9084 68.6521 26.8061 68.7544 26.8061 68.7544C26.8061 68.7544 26.9084 68.6521 26.9084 68.5498Z" fill="white"/>
<path fill-rule="evenodd" clip-rule="evenodd" d="M18.0071 78.0649L19.2348 76.7349L20.3603 75.4048L21.9973 73.5632L23.532 72.0285L24.7597 70.903L25.9875 69.6753" fill="white"/>
<path d="M26.806 62.718L26.7037 62.9226L26.806 62.718Z" fill="white"/>
<path d="M26.8061 62.718H26.7038L25.476 63.3319L24.3506 63.9457L23.839 64.6619H23.2251L22.7136 65.0712H22.3043L21.7927 65.4804L21.4858 65.8897H21.1789L20.2581 66.2989L19.7465 66.5036V66.9128L19.2349 67.0151L18.8257 67.3221V67.4244V68.8568L18.7234 69.266L18.4164 70.6984L18.2118 71.21L18.1095 71.4146L17.1887 73.6655L17.9049 71.4146L17.7002 71.9262L17.291 73.1539L16.8817 74.3817V75.0979V75.7118L16.4725 76.9395L16.1655 78.2696L16.3702 78.8835L16.8817 77.6557L17.0863 76.8372L17.7002 75.7118L18.2118 75.0979L19.5419 73.6655L21.4858 72.847L22.8159 71.6192L24.2483 69.573L25.2714 67.8336L25.783 65.8897L26.1922 64.4573L26.7038 63.0249L26.9084 62.718H26.8061L26.9084 62.6157L26.8061 62.718Z" fill="white"/>
<path fill-rule="evenodd" clip-rule="evenodd" d="M17.7002 74.484L18.8256 72.0285L20.0534 70.0845L21.6904 68.0383L23.6344 65.7874L25.6806 63.9457" fill="white"/>
<path d="M8.90128 63.3318L9.10591 63.5365L9.71979 64.4573L8.69666 62.8203L8.79897 63.0249L8.90128 63.3318Z" fill="white"/>
<path d="M15.0401 75.6094L14.9378 74.8932V73.4609V73.3585L13.9146 71.0053V69.573L13.71 68.8568L13.8123 69.1637L13.9146 69.4706V69.3683L13.8123 69.0614L13.6077 68.8568L13.5054 68.5498L12.7892 67.4244L12.1753 66.4012L11.2545 65.4804L10.436 64.7642L9.71979 63.9457L8.90129 63.3319L8.79897 63.0249L8.69666 62.8203L8.79897 62.9226V62.8203L8.08278 62.5133L7.77584 62.2064L7.26428 62.1041L6.03652 61.081L5.9342 61.6948L6.03652 62.718L6.24114 64.048L6.75271 64.8665V65.1735L6.95734 65.5827V66.4012L7.05965 67.0151L7.16196 67.3221L7.57121 67.8336L7.77584 68.2429L7.67353 68.7544L8.08278 69.266L8.28741 69.8799L8.49203 70.1868L9.41285 70.4938L10.3337 71.21L11.2545 72.3354L11.1522 72.2331L11.5614 72.847L12.1753 73.6655L12.6869 74.3817L12.7892 74.484L13.8123 75.0979L14.6308 76.121L15.5516 77.4511L15.0401 75.6094Z" fill="white"/>
<path fill-rule="evenodd" clip-rule="evenodd" d="M14.2216 75.0979L13.4031 73.4608L12.073 71.3123L10.5383 69.0614L9.20822 67.0151L8.08278 65.0712L6.7527 63.2295L6.65039 62.3087" fill="white"/>
<path d="M18.8256 66.0943L18.4163 64.7642L18.314 63.7411L18.0071 62.6156L17.4955 60.6717V60.9786V60.774L16.8816 62.0018L16.4724 62.411L16.1654 63.3318C15.8585 63.4341 15.7562 64.2527 15.7562 64.2527H15.3469L15.2446 65.0712H14.9377L14.4261 66.5035L14.1192 67.5267L14.2215 67.8336L14.0169 68.5498L13.9146 69.5729V71.0053L14.8354 73.3585L15.3469 74.484L15.4492 75.0978V76.0187L15.7562 76.8372L16.0631 77.3487V76.4279L16.3701 75.3025L17.0863 73.6655L18.0071 71.3123L18.4163 70.5961L18.7233 69.1637L18.8256 68.7544V67.322V66.0943Z" fill="white"/>
<path fill-rule="evenodd" clip-rule="evenodd" d="M15.8585 75.2002L15.9608 73.6655L16.1655 71.4146L16.0631 69.4706V67.629L16.3701 65.6851L16.5747 63.9457L17.1886 62.411" fill="white"/>
<path fill-rule="evenodd" clip-rule="evenodd" d="M29.2616 103.336L29.4662 103.643L29.057 103.848L28.5454 103.643L28.0339 103.336L27.0107 102.927L25.8853 102.722H24.5552L23.7367 103.029H23.1228L22.8159 103.234L21.8951 103.132L21.4858 103.234H20.565L20.1557 103.336H19.6442L18.928 103.234L18.0072 103.029L17.1887 102.722L16.2678 102.415L15.9609 102.211L14.9378 101.904L14.3239 101.495L13.71 101.29L13.1984 100.472L12.7892 100.369L12.2776 99.9599L12.1753 99.5507L11.5614 99.3461V99.0391L11.2545 98.8345L10.8452 98.4252L10.5383 97.6067L9.92443 97.2998L9.82211 97.0952L9.31055 96.5836L10.1291 96.6859L10.9476 96.5836L11.6637 96.7882H12.7892L13.9146 96.6859L14.4262 96.5836L15.4493 96.7882L16.3702 96.9929H17.0863L17.3933 96.7882L18.2118 96.8905L19.0303 97.0952L19.5419 97.2998H20.1557L20.565 97.7091H21.1789L21.8951 98.3229L22.4066 98.6299H22.8159L23.3275 99.0391L23.7367 99.2438L24.2483 99.653L24.4529 99.9599L24.9645 100.472L25.2714 100.778L25.783 101.29L26.2945 101.904L26.8061 102.211L27.5223 102.518L28.4431 101.188L28.3408 100.472L28.2385 99.8576L27.8292 99.0391V98.1183L27.3177 97.6067V96.5836L27.0107 96.2767V95.4582V94.742L26.8061 94.1281L27.113 93.6165L27.2154 93.0027L27.3177 92.5934L27.42 91.9795L27.5223 91.3656L27.7269 90.8541L27.9315 89.7286L28.5454 89.3194L28.9547 88.7055L29.3639 88.2962L30.1824 87.7847L30.4894 87.1708L31.0009 86.3523L31.2056 87.4777L31.5125 87.887V88.2962L31.7171 88.9101L32.0241 89.4217L32.1264 90.0356L32.2287 90.5471V91.5703V92.3888V93.4119L32.0241 94.0258L32.1264 94.3327L32.2287 94.742L32.331 95.2535L32.0241 95.8674L31.8194 96.6859L31.5125 96.8905L31.6148 97.1975L31.3079 97.6067L31.1033 98.1183L30.7963 98.4252L30.4894 99.0391V99.5507L29.9778 99.7553L29.5686 100.267L29.3639 100.676L29.057 100.778L28.9547 101.597L29.2616 103.336Z" fill="white"/>
<path fill-rule="evenodd" clip-rule="evenodd" d="M25.169 102.109L22.6112 101.495L19.5418 100.881L16.3701 99.7553L14.1192 99.0391L11.766 97.8114" fill="white"/>
<path fill-rule="evenodd" clip-rule="evenodd" d="M28.75 99.7554L28.8523 98.7322L29.0569 97.5045V95.8675L29.3639 94.9466V93.7189L29.4662 92.5934L30.0801 91.5703L30.387 90.4449L30.4893 89.0125L30.5916 87.887" fill="white"/>
<path fill-rule="evenodd" clip-rule="evenodd" d="M28.0338 83.2829V84.613L28.2384 86.25L28.6476 87.7847L28.8523 88.3986L28.9546 88.8078L28.5453 89.3194L27.9315 89.7287L27.7268 90.8541L27.5222 91.3657L27.4199 91.9795L27.3176 92.5934L27.2153 93.0027L27.113 93.6166L26.806 94.1281L27.0106 94.742V95.4582V96.2767L27.3176 96.5836V97.6068L27.5222 97.8114L27.3176 98.1183L27.113 99.0392L26.806 99.653V100.472L26.6014 100.676L26.3968 100.369L26.6014 100.062L26.4991 99.0392V98.1183L26.0898 97.0952L25.5783 96.0721L25.3736 95.6628V95.2536L25.0667 94.8443L24.8621 94.2304V94.0258V93.9235L25.0667 92.6957L25.2713 91.468V90.1379V89.1148L25.0667 88.3986L24.9644 88.2963L25.4759 87.2731L25.7829 86.25L26.3968 85.4315L27.113 84.5107L28.0338 83.2829Z" fill="white"/>
<path fill-rule="evenodd" clip-rule="evenodd" d="M26.7037 100.062V97.2998L26.4991 95.2536L26.3967 92.7981L26.2944 90.9564L26.4991 89.1148L26.9083 86.8639L27.5222 84.8176" fill="white"/>
<path d="M24.9644 88.3986L24.6575 87.6824V87.5801V87.1708L24.4529 86.4546L24.2483 85.9431L23.9413 85.2269L23.7367 84.7153L23.2251 83.6922L22.8159 83.0783L22.202 82.2598L22.3043 82.3621L21.4858 80.6228L21.0765 81.7482L20.565 82.5667V83.2829L20.4627 83.9991V84.8176L20.3604 85.6361L20.4627 86.4546L20.565 87.6824V88.7055L20.6673 89.9333V90.5471L20.8719 91.7749L21.4858 93.3096L22.0997 94.3327L22.9182 95.2535L23.5321 96.1744L23.6344 96.6859L23.839 97.2998L24.0436 97.6068L24.2483 97.4021L23.9413 96.8906V96.0721L24.0436 95.5605L24.3506 94.742L24.7598 93.8212L24.8621 92.6957L25.0668 91.3657V90.0356V89.0124L24.9644 88.3986Z" fill="white"/>
<path fill-rule="evenodd" clip-rule="evenodd" d="M23.839 96.4813L23.6344 95.1512L23.5321 93.7189L23.1228 92.2865L22.6113 90.3425L22.3043 88.9102L21.9974 87.4778L21.7928 85.3292L21.5881 83.4876V82.2598" fill="white"/>
<path fill-rule="evenodd" clip-rule="evenodd" d="M22.9182 95.7651L22.202 95.1512L21.3835 94.5374L20.6673 93.3096L19.5418 92.0818L18.9279 91.468L18.4164 90.8541L18.0071 90.5471L17.2909 89.6263L16.6771 89.0124L16.0632 88.9101L15.4493 88.3986L14.8354 88.2963L14.3239 87.7847H13.71L12.5845 86.9662H12.073H11.0498L10.0267 86.6592L8.79894 86.1477L7.57118 86.0454L6.75268 85.8407L5.42261 85.7384L5.83186 86.25L6.34343 86.8639L6.75268 87.5801L7.26424 88.0916L7.6735 88.3986L8.18506 89.0124L8.59431 89.831L8.79894 90.2402L9.20819 90.5471L9.61745 90.9564L10.0267 91.468L10.436 92.0818L10.9475 92.2865L11.6637 92.798L11.9706 93.2073L12.5845 93.5142L13.3007 94.0258L14.1192 94.3327H14.5285L15.2447 94.9466H16.3701H17.4956L18.2118 95.1512H19.1326L20.1557 95.0489L21.1788 95.3559L21.9973 95.6628L23.0205 95.9697L22.9182 95.7651Z" fill="white"/>
<path fill-rule="evenodd" clip-rule="evenodd" d="M22.8159 95.8674L20.565 94.6397L18.4164 93.5142L16.2678 92.3888L13.5054 90.9564L11.8684 89.831L10.1291 88.8078L8.49205 87.7847L6.5481 86.25" fill="white"/>
<path d="M28.3408 103.132L28.6477 103.336V102.518L28.5454 101.802L28.3408 101.597L27.8292 100.881L27.113 100.062L26.8061 99.7553L26.4991 99.2438L25.6806 98.2206L24.5552 96.6859L24.0436 95.9698L22.9182 95.3559L22.202 94.5374C22.202 94.5374 22.202 94.5374 22.0997 94.4351L21.9974 94.3327L21.3835 93.3096L20.7696 91.7749L20.6673 91.161C20.565 90.8541 20.4627 90.5472 20.258 90.2402L18.928 86.5569L19.2349 85.2269L18.5187 84.4084L18.4164 83.7945L18.0072 83.0783L17.8025 82.1575L17.4956 81.032L17.3933 79.8043L16.984 78.6788V78.5765L16.6771 77.758L16.4725 77.1441L15.347 74.5863L14.8354 76.3256L15.5516 77.6557L15.654 78.1673L15.8586 78.6788L16.0632 79.0881L16.2678 79.5996L16.4725 79.8043L16.8817 80.7251V81.6459L17.291 83.1806V83.7945V84.8176L17.8025 85.7384L17.9048 86.5569L18.1095 87.2731L18.928 89.9333L21.1789 94.4351L21.4858 95.4582L21.8951 95.8674L22.8159 96.9929L23.7367 98.016L24.2483 98.9368L24.8621 99.3461L25.476 100.267L25.9876 101.085L26.3968 101.495L27.113 102.211L27.42 102.62L27.8292 102.927L28.3408 103.132Z" fill="white"/>
<path d="M34.8888 108.759L34.2749 107.838L33.968 107.429L33.5587 107.224L33.1495 107.02L32.5356 106.406L31.8194 105.792L31.3078 105.28L30.4893 104.359L29.9777 103.643H29.4662L28.9546 103.848L28.5454 103.643L28.1361 104.052L28.3407 104.257L28.75 104.769L29.3639 105.076L30.2847 105.69L30.6939 106.099L31.1032 106.508L32.024 107.429L32.6379 108.145H32.7402L33.3541 108.35L33.968 108.554L34.4795 108.861L35.0934 108.964H35.1957L34.8888 108.759Z" fill="white"/>
<path d="M35.4003 98.5276L35.0934 97.7091L34.9911 97.0952L34.6841 96.2767L34.5818 95.2535L34.1726 95.5605L34.0703 96.072L33.7633 96.4813L33.3541 96.6859L33.2518 97.0952V97.8114L33.1494 98.1183L32.9448 98.4252L32.7402 98.8345L32.5356 99.4484L32.3309 99.8576L31.8194 100.472V101.085V101.597L31.6147 101.802V102.313L31.8194 103.336L32.1263 104.564V104.769L32.3309 105.587L32.8425 106.303L32.9448 106.815L33.0471 107.326L33.1494 107.838L33.4564 108.35H33.661V107.94L33.5587 107.326L33.661 106.61L34.1726 105.792L34.7865 104.666L34.9911 103.848L35.1957 103.746V103.234V102.109V100.983L35.4003 100.062L35.605 99.5507H35.5026L35.4003 99.2438V98.5276Z" fill="white"/>
<path fill-rule="evenodd" clip-rule="evenodd" d="M33.2518 106.099V104.052L33.4565 102.211L33.8657 100.267L34.275 96.6859" fill="white"/>
<path fill-rule="evenodd" clip-rule="evenodd" d="M50.6451 49.4172H52.589V50.7473H45.3248V52.6913L44.5063 55.7607L43.6878 52.6913V50.7473H36.6282V49.2126C36.6282 49.2126 37.7536 49.2126 38.1629 49.2126C39.6976 49.9288 40.1068 50.2358 43.7901 49.2126C43.8924 48.2918 43.9947 44.1993 43.9947 44.1993H44.8132C44.8132 44.1993 45.2225 49.1103 45.2225 49.3149C46.041 49.6219 48.4965 50.8496 50.6451 49.4172Z" fill="white"/>
<path d="M44.4039 41.8461C43.6877 41.8461 43.1761 42.46 43.1761 43.0739C43.1761 43.79 43.79 44.3016 44.4039 44.3016C45.1201 44.3016 45.6317 43.6877 45.6317 43.0739C45.734 42.3577 45.1201 41.8461 44.4039 41.8461ZM44.5062 43.6877C44.097 43.6877 43.8923 43.3808 43.8923 43.0739C43.8923 42.6646 44.1993 42.46 44.5062 42.46C44.9155 42.46 45.1201 42.7669 45.1201 43.0739C45.1201 43.3808 44.8132 43.6877 44.5062 43.6877Z" fill="white"/>
<path fill-rule="evenodd" clip-rule="evenodd" d="M52.0774 50.8496L55.0444 61.5925C55.0444 61.5925 55.0444 61.6948 55.0444 62.0018C54.9421 62.3087 51.3612 66.1966 47.5756 62.0018C47.4733 61.6948 47.4733 61.5925 47.4733 61.5925L50.5427 50.8496H50.9519L47.8825 61.6948H51.1565L51.2589 50.8496H51.5658L51.6681 61.6948H54.5329L51.7704 50.8496H52.0774Z" fill="white"/>
<path fill-rule="evenodd" clip-rule="evenodd" d="M38.1628 50.8496L41.1299 61.5925C41.1299 61.5925 41.1299 61.6948 41.1299 62.0018C41.0276 62.3087 37.4466 66.1966 33.661 62.0018C33.5587 61.6948 33.5587 61.5925 33.5587 61.5925L36.6281 50.8496H37.0374L33.968 61.6948H37.1397L37.242 50.8496H37.5489L37.8559 61.6948H40.7206L37.9582 50.8496H38.1628Z" fill="white"/>
<path d="M45.2224 49.4173H43.6877V50.7473H45.2224V49.4173Z" fill="white"/>
<path fill-rule="evenodd" clip-rule="evenodd" d="M78.4743 78.5765C78.1673 77.3488 77.8604 77.5534 76.7349 77.758C75.8141 77.758 75.3025 77.4511 74.3817 77.5534C72.7447 77.6557 71.7216 78.4742 69.9823 78.4742C65.7874 78.065 65.9921 77.2465 65.1735 77.2465C64.355 77.2465 63.8435 77.5534 63.1273 77.6557H62.9227C62.9227 77.3488 63.025 76.8372 62.718 76.7349C62.3088 76.428 61.7972 76.5303 61.388 76.6326C61.8995 76.8372 62.5134 76.9395 62.3088 77.2465C61.7972 77.758 60.5695 77.758 60.3648 77.5534L59.9556 77.2465C59.6486 77.2465 59.2394 77.2465 58.9324 77.2465C58.7278 77.3488 58.5232 77.4511 58.4209 77.6557C57.3977 77.6557 57.5001 76.6326 57.5001 75.9164C57.0908 76.7349 57.0908 77.1441 57.3977 78.065L58.2163 78.7812L57.9093 78.9858L57.1931 79.2927C57.6024 79.5997 57.9093 79.702 58.5232 79.8043V80.7251L58.3186 80.9297C58.3186 81.6459 58.4209 81.7482 59.0348 82.1575C60.0579 82.1575 61.1833 82.3621 61.4903 83.4876C62.5134 84.3061 62.8203 84.9199 63.3319 86.1477C63.5365 86.3523 63.7412 86.4546 63.9458 86.6593C64.355 87.0685 64.4574 87.4778 64.4574 88.194V88.5009L64.0481 89.0125C63.8435 89.2171 63.7412 89.6264 63.7412 89.831C63.7412 89.9333 63.8435 89.9333 64.1504 89.9333H64.4574C64.7643 89.7287 64.9689 89.4217 65.1735 89.0125V88.3986V87.6824L65.3782 87.4778L65.5828 87.6824V88.194L65.4805 88.9102C65.1735 89.7287 64.7643 90.0356 64.8666 90.1379C64.9689 90.2402 65.3782 90.1379 65.8897 90.1379L66.1967 89.6263C66.4013 89.0125 66.1967 88.3986 66.1967 87.6824L66.4013 86.8639L66.5036 86.0454C67.6291 85.9431 68.6522 85.7384 69.3684 85.5338C70.5961 85.3292 70.1869 83.9991 73.2563 83.7945C73.4609 84.8176 73.9725 85.4315 74.3817 86.4546L74.6887 86.7616V87.1708C74.3817 87.887 74.0748 88.2963 73.7678 88.9102L73.3586 89.0125V89.3194L73.154 89.6263L73.3586 89.9333C73.7678 89.9333 74.0748 89.9333 74.3817 89.6263L74.5864 89.3194C75.0979 88.6032 75.0979 88.3986 75.0979 87.4778L75.5072 86.7616L75.9164 86.25L76.1211 86.0454C76.2234 86.25 76.428 86.3523 76.5303 86.557C76.8372 87.3755 77.1442 88.3986 76.428 89.2171C76.1211 89.524 75.9164 89.831 75.7118 90.0356L76.1211 90.2402H76.7349C77.4511 89.9333 77.7581 89.524 77.6558 88.8078C77.4511 88.194 77.3488 87.7847 77.3488 87.1708C77.5534 86.3523 77.5534 86.25 77.1442 85.5338L77.2465 85.0223V84.4084L77.3488 83.3852V82.3621L77.4511 81.1344L77.6558 80.5205V79.8043L77.7581 79.395L77.4511 78.6788L77.2465 78.3719L77.5534 78.1673C78.065 78.065 78.065 78.1673 78.3719 78.5765C78.6789 80.5205 78.2696 82.8737 77.8604 84.8176L77.5534 85.5338C77.9627 86.25 78.065 86.4546 77.7581 87.1708V87.5801L78.065 88.0917C78.4743 87.0685 78.6789 86.25 78.3719 85.1246C78.1673 82.976 78.5766 80.7251 78.4743 78.5765Z" fill="white"/>
<path d="M70.6984 49.7242C70.6984 49.5196 70.4938 49.3149 70.1869 49.3149C69.8799 49.3149 69.6753 49.5196 69.6753 49.8265C69.6753 49.9288 69.7776 49.9288 69.7776 50.1334H70.5961C70.5961 49.8265 70.6984 49.8265 70.6984 49.7242Z" fill="#0052A4"/>
<path d="M70.903 50.0311H70.596H69.9822H69.5729C69.4706 50.0311 69.3683 50.1334 69.3683 50.3381C69.3683 50.5427 69.4706 50.645 69.5729 50.645H70.903C71.0053 50.645 71.1076 50.5427 71.1076 50.3381C71.1076 50.1334 71.0053 50.0311 70.903 50.0311Z" fill="#0052A4"/>
<path fill-rule="evenodd" clip-rule="evenodd" d="M71.4145 50.3381V50.645H68.8567V50.3381H68.0382V51.1566H68.4475V52.7936H71.8238V51.1566H72.233V50.3381H71.4145ZM70.596 52.6913H69.7775V51.8728C69.7775 51.5658 69.9822 51.3612 70.1868 51.3612C70.3914 51.3612 70.596 51.5658 70.596 51.8728V52.6913Z" fill="#0052A4"/>
<path d="M79.2927 60.6717L76.4279 60.1601L73.1539 60.3648L64.7642 60.2625L62.1041 60.6717L60.774 60.5694L60.3647 60.3648L67.2197 53.4075C67.2197 53.4075 67.9359 52.7936 68.4475 52.6913C68.9591 52.6913 71.9261 52.6913 71.9261 52.6913C71.9261 52.6913 72.54 52.6913 73.1539 53.4075C73.7678 54.226 78.7811 59.0347 80.0089 60.3648C80.3158 60.5694 79.2927 60.6717 79.2927 60.6717Z" fill="#0052A4"/>
<path fill-rule="evenodd" clip-rule="evenodd" d="M51.6681 82.5667C51.5658 82.976 51.4635 83.4876 51.2589 83.7945C51.2589 84.1014 51.4635 83.5899 51.5658 83.5899C51.3612 84.1014 51.2589 84.9199 51.3612 85.6361C51.4635 85.5338 51.4635 85.4315 51.4635 85.3292C51.6681 86.3523 52.282 87.0685 52.7936 87.7847C52.8959 87.6824 52.6913 87.4778 52.5889 87.2731C52.8959 87.6824 53.3051 87.887 53.8167 88.194C53.7144 87.887 53.2028 87.5801 53.1005 87.1708C53.2028 87.0685 53.4074 87.3755 53.7144 87.2731C52.5889 86.4546 53.6121 84.5107 53.5098 83.0783C53.6121 82.976 53.7144 83.1806 53.7144 83.2829C53.8167 82.8737 53.5098 82.3621 53.4074 82.0552C53.4074 81.8505 53.6121 82.2598 53.6121 81.9529C52.9982 81.2367 52.6913 79.8043 51.5658 79.5997C51.1566 79.4973 50.8496 79.9066 50.4404 79.8043C50.1334 79.8043 49.8265 79.395 49.4172 79.0881C48.8034 78.6788 47.7802 78.2696 46.6548 78.5765C45.8363 78.7811 45.1201 79.0881 43.9946 79.1904C42.6646 79.2927 41.5391 78.9858 40.9252 78.3719C40.6183 77.9626 40.4137 77.4511 40.1067 77.0418C39.1859 75.7118 37.0373 73.6655 34.8888 74.7909C34.5818 74.5863 34.2749 74.1771 34.0703 74.2794C33.9679 74.484 34.1726 74.6886 34.1726 74.6886C34.1726 74.6886 33.8656 74.484 33.661 74.6886C33.661 74.9956 34.2749 75.2002 34.2749 75.5071C34.2749 75.8141 34.0703 76.121 33.9679 76.4279C33.9679 76.5303 34.0703 76.7349 34.0703 76.8372C34.0703 78.065 33.3541 79.1904 33.9679 79.9066C35.298 80.4182 35.298 78.6788 36.0142 78.1673C36.2188 78.065 36.3212 78.1673 36.5258 77.9626C37.4466 79.2927 36.3211 82.1575 37.4466 83.2829C37.242 83.6922 36.8327 83.8968 36.5258 84.2037C36.3212 84.4084 35.7073 84.8176 35.605 85.1246C35.5026 85.5338 35.8096 86.0454 35.9119 86.5569C36.0142 87.0685 36.1165 87.4778 36.2188 87.9893C36.8327 88.194 36.935 88.9101 37.8558 88.9101C38.0605 88.3986 37.6512 87.9893 37.6512 87.5801C37.4466 87.5801 37.242 87.6824 37.1397 87.7847C36.935 87.0685 36.2188 86.5569 36.4235 85.7384C36.6281 85.0223 37.9582 85.2269 38.572 84.8176C38.572 85.4315 39.2882 85.9431 39.3905 86.6593C39.3905 86.7616 39.2882 87.0685 39.2882 87.1708C39.3905 87.887 40.0044 88.5009 39.9021 89.2171C39.9021 89.524 39.4929 89.831 39.6975 90.1379C39.1859 90.3425 39.0836 90.8541 38.879 91.3657C39.1859 91.6726 39.9021 91.6726 40.3114 91.468C40.516 90.9564 40.3114 90.3425 40.8229 90.0356C40.3114 88.5009 40.516 86.6593 40.516 84.8176C42.3576 84.9199 43.79 84.613 44.8131 83.9991C45.0178 85.0222 46.5525 85.1246 46.4502 86.1477C46.4502 86.5569 45.3247 87.5801 45.0178 87.887C44.8131 88.0916 44.5062 88.2963 44.3016 88.5009C44.1993 89.3194 43.9946 89.6263 44.0969 90.5472C44.8131 90.7518 45.2224 90.3425 45.427 89.9333C45.427 89.6263 45.2224 89.524 45.1201 89.3194C45.1201 89.1148 45.427 89.1148 45.5293 89.0125C45.5293 87.7847 47.371 87.5801 47.6779 86.6593C47.9848 85.9431 47.371 85.7384 47.371 84.9199C48.2918 85.1246 48.8034 86.1477 49.7242 86.5569C50.3381 87.3754 51.1566 88.8078 50.9519 90.2402C50.8496 90.7518 50.1334 91.161 50.1334 91.7749C50.3381 92.1842 51.1566 92.1842 51.4635 91.9795C51.7704 91.3657 51.4635 90.7518 51.8728 90.2402C51.3612 89.0125 51.5658 87.6824 51.3612 86.3523C51.3612 86.0454 50.8496 85.8407 50.645 85.6361C49.3149 84.2037 50.9519 82.669 50.5427 80.6228C50.9519 80.7251 51.1566 81.032 51.3612 81.4413C51.4635 81.4413 51.3612 81.2367 51.4635 81.1344C51.8728 81.5436 51.7704 82.5667 51.4635 82.976C51.3612 82.8737 51.5658 82.5667 51.6681 82.5667Z" fill="#0052A4"/>
<path d="M43.3808 30.7963C33.968 34.6842 37.549 38.6744 30.7963 38.879C35.7073 41.4368 36.5258 38.2651 41.1299 36.9351C45.734 32.5356 51.0543 30.1824 56.7838 30.1824C62.5134 30.1824 67.8336 32.5356 72.4377 36.9351C77.8603 37.9582 78.7812 34.9911 82.8737 38.879C80.9297 32.8425 77.6557 35.8096 72.4377 31.8194C72.2331 31.6148 72.0285 31.4101 71.7215 31.2055L71.6192 31.1032C71.4146 31.0009 71.3123 30.7963 71.1077 30.6939L84.9199 28.1361L70.1868 25.476C79.5997 21.5881 76.0187 17.5979 82.7714 17.3932C76.6326 14.3238 76.9395 19.7464 68.6521 19.8488L76.7349 8.28737L64.355 16.8817C68.2429 7.36655 62.9226 7.16192 67.5267 2.14858C61.3879 4.19484 64.5596 7.57117 60.1602 12.8915C59.9555 13.1984 59.7509 13.403 59.444 13.71C59.3417 13.8123 59.3417 13.8123 59.2393 13.9146L56.7838 0L54.1237 14.7331C50.2358 5.32028 46.2456 9.00356 46.0409 2.14858C42.9715 8.28737 48.3941 7.98043 48.4965 16.2678L36.8328 8.28737L45.4271 20.6673C36.0143 16.7794 35.8096 22.0996 30.7963 17.4956C32.6379 23.2251 35.8096 20.7696 40.6183 24.1459C40.823 24.2482 41.0276 24.4528 41.1299 24.5552C41.5392 24.8621 42.0507 25.2714 42.5623 25.7829L28.6477 28.1361L43.3808 30.7963Z" fill="#FFDD00"/>
<path d="M56.6814 107.122C49.3149 107.122 42.3576 103.132 37.1396 95.8674C31.9217 88.6032 29.0569 78.9858 29.0569 68.7544C29.0569 58.5231 31.9217 48.9057 37.1396 41.6415C42.3576 34.3772 49.3149 30.2847 56.6814 30.2847C64.048 30.2847 71.0053 34.2749 76.2233 41.6415C81.4412 48.9057 84.306 58.5231 84.306 68.7544C84.306 78.9858 81.4412 88.6032 76.2233 95.8674C71.1076 103.132 64.1503 107.122 56.6814 107.122ZM56.6814 31.1032C41.846 31.1032 29.8754 47.9849 29.8754 68.7544C29.8754 89.524 41.9483 106.406 56.6814 106.406C71.5168 106.406 83.4875 89.524 83.4875 68.7544C83.4875 47.9849 71.5168 31.1032 56.6814 31.1032Z" fill="white"/>
<path d="M81.5436 66.4012C80.6228 66.4012 79.702 66.9128 78.7812 66.9128C77.8603 66.9128 76.9395 66.4012 76.0187 66.4012C75.0979 66.4012 74.1771 66.9128 73.2562 66.9128C72.3354 66.9128 71.4146 66.4012 70.4938 66.4012C69.573 66.4012 68.6522 66.9128 67.7313 66.9128C66.8105 66.9128 65.8897 66.4012 64.9689 66.4012C64.0481 66.4012 63.1272 66.9128 62.2064 66.9128C61.2856 66.9128 60.3648 66.4012 59.444 66.4012C58.5232 66.4012 57.6023 66.9128 56.6815 66.9128V67.7313C57.6023 67.7313 58.5232 67.2197 59.444 67.2197C60.3648 67.2197 61.2856 67.7313 62.2064 67.7313C63.1272 67.7313 64.0481 67.2197 64.9689 67.2197C65.8897 67.2197 66.8105 67.7313 67.7313 67.7313C68.6522 67.7313 69.573 67.2197 70.4938 67.2197C71.4146 67.2197 72.3354 67.7313 73.2562 67.7313C74.1771 67.7313 75.0979 67.2197 76.0187 67.2197C76.9395 67.2197 77.8603 67.7313 78.7812 67.7313C79.702 67.7313 80.6228 67.2197 81.5436 67.2197C82.2598 67.2197 82.8737 67.5267 83.4876 67.629C83.4876 67.3221 83.4876 67.0151 83.4876 66.8105C82.8737 66.7082 82.2598 66.4012 81.5436 66.4012Z" fill="#0052A4"/>
<path d="M76.0187 65.5827C76.9395 65.5827 77.8603 66.0943 78.7811 66.0943C79.702 66.0943 80.6228 65.5827 81.5436 65.5827C82.2598 65.5827 82.8737 65.7874 83.4876 65.992C83.4876 65.685 83.4876 65.3781 83.4876 65.1735C82.8737 64.9688 82.2598 64.7642 81.6459 64.7642C80.7251 64.7642 79.8043 65.2758 78.8835 65.2758C77.9626 65.2758 77.0418 64.7642 76.121 64.7642C75.2002 64.7642 74.2794 65.2758 73.3585 65.2758C72.4377 65.2758 71.5169 64.7642 70.5961 64.7642C69.6753 64.7642 68.7545 65.2758 67.8336 65.2758C66.9128 65.2758 65.992 64.7642 65.0712 64.7642C64.1504 64.7642 63.2295 65.2758 62.3087 65.2758C61.3879 65.2758 60.4671 64.7642 59.5463 64.7642C58.6255 64.7642 57.7046 65.2758 56.7838 65.2758V66.0943C57.7046 66.0943 58.6255 65.5827 59.5463 65.5827C60.4671 65.5827 61.3879 66.0943 62.3087 66.0943C63.2295 66.0943 64.1504 65.5827 65.0712 65.5827C65.992 65.5827 66.9128 66.0943 67.8336 66.0943C68.7545 66.0943 69.6753 65.5827 70.5961 65.5827C71.5169 65.5827 72.4377 66.0943 73.3585 66.0943C74.177 66.0943 74.9956 65.5827 76.0187 65.5827Z" fill="#0052A4"/>
<path d="M78.7812 63.5365C77.8603 63.5365 76.9395 63.0249 76.0187 63.0249C75.0979 63.0249 74.1771 63.5365 73.2563 63.5365C72.3354 63.5365 71.4146 63.0249 70.4938 63.0249C69.573 63.0249 68.6522 63.5365 67.7313 63.5365C66.8105 63.5365 65.8897 63.0249 64.9689 63.0249C64.0481 63.0249 63.1272 63.5365 62.2064 63.5365C61.2856 63.5365 60.3648 63.0249 59.444 63.0249C58.5232 63.0249 57.6023 63.5365 56.6815 63.5365V64.4573C57.6023 64.4573 58.5232 63.9457 59.444 63.9457C60.3648 63.9457 61.2856 64.4573 62.2064 64.4573C63.1272 64.4573 64.0481 63.9457 64.9689 63.9457C65.8897 63.9457 66.8105 64.4573 67.7313 64.4573C68.6522 64.4573 69.573 63.9457 70.4938 63.9457C71.4146 63.9457 72.3354 64.4573 73.2563 64.4573C74.1771 64.4573 75.0979 63.9457 76.0187 63.9457C76.9395 63.9457 77.8603 64.4573 78.7812 64.4573C79.702 64.4573 80.6228 63.9457 81.5436 63.9457C82.1575 63.9457 82.7714 64.1503 83.3853 64.355C83.3853 64.048 83.3853 63.7411 83.2829 63.5365C82.6691 63.3318 82.1575 63.1272 81.5436 63.1272C80.6228 63.0249 79.702 63.5365 78.7812 63.5365Z" fill="#0052A4"/>
<path d="M78.7812 61.8995C77.8604 61.8995 76.9395 61.3879 76.0187 61.3879C75.0979 61.3879 74.1771 61.8995 73.2563 61.8995C72.3354 61.8995 71.4146 61.3879 70.3915 61.3879C69.3684 61.3879 68.5499 61.8995 67.629 61.8995C66.7082 61.8995 65.7874 61.3879 64.8666 61.3879C63.9458 61.3879 63.025 61.8995 62.1041 61.8995C61.1833 61.8995 60.2625 61.3879 59.3417 61.3879C58.4209 61.3879 57.5 61.8995 56.5792 61.8995V62.718C57.5 62.718 58.4209 62.2064 59.3417 62.2064C60.2625 62.2064 61.1833 62.718 62.1041 62.718C63.025 62.718 63.9458 62.2064 64.8666 62.2064C65.7874 62.2064 66.7082 62.718 67.629 62.718C68.5499 62.718 69.4707 62.2064 70.3915 62.2064C71.3123 62.2064 72.2331 62.718 73.154 62.718C74.0748 62.718 74.9956 62.2064 75.9164 62.2064C76.8372 62.2064 77.758 62.718 78.6789 62.718C79.5997 62.718 80.5205 62.2064 81.4413 62.2064C82.0552 62.2064 82.5668 62.411 83.0783 62.5133C83.0783 62.2064 82.976 61.8995 82.976 61.5925C82.4644 61.4902 81.9529 61.2856 81.4413 61.2856C80.6228 61.3879 79.702 61.8995 78.7812 61.8995Z" fill="#0052A4"/>
<path d="M78.7812 60.1601C77.8603 60.1601 76.9395 59.6486 76.0187 59.6486C75.0979 59.6486 74.1771 60.1601 73.2562 60.1601C72.3354 60.1601 71.4146 59.6486 70.4938 59.6486C69.573 59.6486 68.6522 60.1601 67.7313 60.1601C66.8105 60.1601 65.8897 59.6486 64.9689 59.6486C64.0481 59.6486 63.1272 60.1601 62.2064 60.1601C61.2856 60.1601 60.3648 59.6486 59.444 59.6486C58.5232 59.6486 57.6023 60.1601 56.6815 60.1601V60.9786C57.6023 60.9786 58.5232 60.4671 59.444 60.4671C60.3648 60.4671 61.2856 60.9786 62.2064 60.9786C63.1272 60.9786 64.0481 60.4671 64.9689 60.4671C65.8897 60.4671 66.8105 60.9786 67.7313 60.9786C68.6522 60.9786 69.573 60.4671 70.4938 60.4671C71.4146 60.4671 72.3354 60.9786 73.2562 60.9786C74.1771 60.9786 75.0979 60.4671 76.0187 60.4671C76.9395 60.4671 77.8603 60.9786 78.7812 60.9786C79.702 60.9786 80.6228 60.4671 81.5436 60.4671C82.0552 60.4671 82.4644 60.5694 82.976 60.774C82.976 60.4671 82.8737 60.1601 82.8737 59.8532C82.4644 59.7509 82.0552 59.6486 81.6459 59.6486C80.6228 59.6486 79.702 60.1601 78.7812 60.1601Z" fill="#0052A4"/>
</g>
<defs>
<clipPath id="clip0">
<path d="M0 0H115V132.802H0V0Z" fill="white"/>
</clipPath>
</defs>
</svg>
