<?xml version="1.0" encoding="utf-8"?>
<!-- Generator: Adobe Illustrator 25.0.0, SVG Export Plug-In . SVG Version: 6.00 Build 0)  -->
<svg version="1.1" id="Capa_1" xmlns="http://www.w3.org/2000/svg" xmlns:xlink="http://www.w3.org/1999/xlink" x="0px" y="0px"
	 viewBox="0 0 125 43" style="enable-background:new 0 0 125 43;" xml:space="preserve">
<style type="text/css">
	.st0{fill-rule:evenodd;clip-rule:evenodd;fill:#FBB800;}
	.st1{fill:#002F6C;}
</style>
<path class="st0" d="M19.1,13.6c0.5,0.4,1.1,0.7,1.8,0.7c0.1,0,0.2,0,0.3,0.1c0,0.1,0.1,0.2,0,0.3c-0.5,0.6-1.4,1-2.3,1.1
	c0.3,0.6,0.6,1.2,1.2,1.5c0.1,0,0.2,0.1,0.2,0.2c0,0.1,0,0.2-0.2,0.3c-0.7,0.2-1.7,0.1-2.5-0.2c0,0.7-0.1,1.3,0.3,1.8
	c0,0.1,0.1,0.2,0,0.3c0,0-0.1,0.2-0.3,0.1c-0.8-0.2-1.5-0.7-2.1-1.4c-0.4,0.5-0.7,1.1-0.7,1.7c0,0.1,0,0.2-0.1,0.3
	c-0.1,0-0.2,0.1-0.3,0c-0.6-0.5-0.9-1.4-1.1-2.3c-0.6,0.3-1.2,0.6-1.4,1.2c0,0.1-0.1,0.2-0.2,0.2c-0.1,0-0.2,0-0.3-0.2
	c-0.2-0.8-0.1-1.7,0.2-2.5c-0.7,0-1.3-0.1-1.9,0.3c-0.1,0-0.2,0.1-0.3,0C9.1,17.1,9,17,9,16.8c0.2-0.8,0.7-1.5,1.4-2.1
	c-0.6-0.4-1.1-0.7-1.8-0.7c-0.1,0-0.2,0-0.3-0.1c0-0.1-0.1-0.2,0-0.4c0.5-0.6,1.4-0.9,2.3-1.1c-0.3-0.6-0.6-1.2-1.2-1.4
	c-0.1-0.1-0.2-0.1-0.2-0.3c0-0.1,0-0.2,0.2-0.3c0.7-0.2,1.7-0.1,2.5,0.2c0.1-0.7,0.1-1.3-0.3-1.9c-0.1-0.1-0.1-0.2,0-0.3
	c0-0.1,0.1-0.2,0.3-0.1c0.7,0.2,1.5,0.7,2.1,1.4c0.4-0.6,0.7-1.1,0.7-1.8c0-0.1,0-0.2,0.1-0.3c0.1,0,0.2-0.1,0.3,0.1
	c0.6,0.5,1,1.4,1.1,2.3c0.6-0.3,1.2-0.6,1.5-1.2c0-0.1,0.1-0.2,0.2-0.2c0.1,0,0.2,0,0.3,0.2c0.2,0.7,0.1,1.7-0.2,2.5
	c0.7,0.1,1.3,0.1,1.9-0.3c0.1,0,0.2-0.1,0.3,0c0.1,0,0.2,0.1,0.1,0.3C20.4,12.2,19.8,13,19.1,13.6"/>
<path class="st1" d="M2.3,7.5C1,10.6,0.2,14.1,0.5,17.9c0.8,10.2,8,18.2,16,17.6c4.5-0.3,8.3-3.2,10.7-7.6c0.5-1,0.3-1.5-0.5-0.6
	C16.1,38.4,3.1,26.7,2.6,13.5c-0.1-2.1,0-4.1,0.3-6.1C3,6.6,2.6,6.8,2.3,7.5"/>
<path class="st1" d="M12.9,28.3c-1.2-0.5-1.4-1.3,0.4-1.3c10.1,0,14.3-11.4,14.2-20c0-0.8,0.3-1,0.6-0.1c0.5,1.6,0.8,3.2,0.9,5
	C29.7,21,24.8,28.8,18,29.3C16.1,29.4,14.5,29.1,12.9,28.3"/>
<path class="st1" d="M53,26.6c-0.4,1.3-2,3.1-5.6,3.1c-2.5,0-4.3-0.8-5.2-2.2c-0.5-0.9-0.7-1.5-0.7-3.1V13h3.4v10.8
	c0,1,0.1,1.6,0.3,2c0.4,0.7,1.2,1.1,2.2,1.1c1.4,0,2.3-0.7,2.5-1.9c0-0.4,0-0.6,0-1.5V13.1h3.3v11C53.2,25.6,53.2,25.9,53,26.6"/>
<path class="st1" d="M62.5,20.1c-0.3-0.2-0.6-0.2-0.9-0.2c-0.7,0-1.3,0.3-1.9,1v8.5h-3.2v-8.1c0-1.6-0.2-2.9-0.5-3.5l2.8-0.8
	c0.3,0.5,0.5,1,0.5,1.7c0.7-0.9,1.7-1.7,2.8-1.7c0.5,0,0.7,0,1.2,0.3L62.5,20.1z"/>
<path class="st1" d="M72.4,29.7c-0.4-0.3-0.7-0.7-0.9-1.2c-0.8,0.8-1.9,1.1-3.2,1.1c-1.7,0-3.2-0.8-3.6-2c-0.2-0.5-0.3-1.2-0.3-2.4
	v-7.7l3.1-0.6v7.8c0,1.1,0.1,1.6,0.3,2c0.2,0.3,0.6,0.6,1.1,0.6c0.8,0,1.7-0.6,1.9-1.1v-8.5l3-0.6v9.2c0,0.8,0.3,1.6,0.7,2.2
	L72.4,29.7z"/>
<path class="st1" d="M87,19.6c-0.3,0-0.6,0-0.8-0.1c0.5,0.6,0.7,1.2,0.7,2c0,2.1-1.9,3.6-4.4,3.6c-0.1,0-0.2,0-0.5,0
	c-0.8,0.4-1.2,0.7-1.2,1c0,0.2,0.2,0.3,0.5,0.3l1.7,0c1.8,0,2.8,0.3,3.7,1.1c0.7,0.7,1,1.5,1,2.6c0,1-0.3,1.8-1,2.5
	c-1.1,1.1-2.9,1.5-4.8,1.5c-1.7,0-3.5-0.3-4.6-1.3c-0.7-0.6-1-1.3-1-2.1c0-0.7,0.2-1,0.3-1.2h2.9c-0.1,0.3-0.1,0.5-0.1,0.8
	c0,1,0.8,1.5,2.3,1.5c0.8,0,1.5-0.1,2-0.4c0.5-0.3,0.8-0.7,0.8-1.2c0-1.1-1-1.4-2.2-1.4l-1.3,0c-1.4,0-2.3-0.1-2.9-0.4
	C77.4,28,77,27.4,77,26.6c0-0.8,0.2-1.5,2.2-2c-1.7-0.5-2.6-1.5-2.6-3.3c0-2.5,2-4.1,5.1-4.1c0.7,0,1.3,0.1,2.2,0.3
	c0.7,0.2,1.1,0.3,1.5,0.3c0.9,0,1.8-0.4,2.5-1l1.3,2C88.5,19.3,87.8,19.6,87,19.6 M81.7,19.5c-1.2,0-1.9,0.7-1.9,1.8
	c0,1.2,0.8,1.7,1.9,1.7c1.2,0,1.9-0.6,1.9-1.7C83.6,20.1,82.9,19.5,81.7,19.5"/>
<path class="st1" d="M98.1,29.7c-0.4-0.3-0.7-0.7-0.9-1.2c-0.8,0.8-1.9,1.1-3.2,1.1c-1.7,0-3.2-0.8-3.6-2c-0.2-0.5-0.3-1.2-0.3-2.4
	v-7.7l3.1-0.6v7.8c0,1.1,0.1,1.6,0.3,2c0.2,0.3,0.6,0.6,1.1,0.6c0.8,0,1.7-0.6,1.9-1.1v-8.5l3-0.6v9.2c0,0.8,0.3,1.6,0.7,2.2
	L98.1,29.7z"/>
<path class="st1" d="M111.1,30c-0.7-0.3-1.4-0.9-1.7-1.5c-0.2,0.2-0.5,0.5-0.7,0.6c-0.6,0.4-1.4,0.7-2.4,0.7c-2.7,0-4.1-1.4-4.1-3.8
	c0-2.8,1.9-4.1,5.8-4.1c0.2,0,0.4,0,0.7,0v-0.5c0-1.3-0.3-1.8-1.4-1.8c-1,0-2.2,0.5-3.5,1.4l-1.3-2.3c0.6-0.4,1.1-0.6,1.9-1
	c1.2-0.5,2.2-0.7,3.3-0.7c2,0,3.4,0.8,3.9,2.1c0.2,0.5,0.2,0.9,0.2,2.2l-0.1,4c0,1.3,0.1,1.9,1.1,2.7L111.1,30z M108.4,24.1
	c-2.2,0-2.9,0.4-2.9,1.8c0,0.9,0.6,1.6,1.4,1.6c0.6,0,1.2-0.3,1.7-0.8l0.1-2.6L108.4,24.1L108.4,24.1z"/>
<path class="st1" d="M120.6,29.6c-0.8,2.3-1.4,3.3-2.3,4c-0.8,0.6-1.8,1-2.9,1.1l-1.1-2.1c0.7-0.2,1.5-0.5,1.9-0.8
	c0.3-0.3,0.6-0.6,0.9-1c0.3-0.5,0.4-0.7,0.7-1.4H117c-0.4-1.1-1-3-1.1-3.4l-2.8-8.5l3.2-0.4l2.1,7c0.2,0.7,0.6,2.3,0.6,2.5
	c0-0.1,0.2-1.3,0.4-1.9c0.1-0.4,0.3-1.1,0.5-1.7l1.8-5.8h3.3L120.6,29.6z"/>
</svg>
