<?xml version="1.0" encoding="utf-8"?>
<!-- Generator: Adobe Illustrator 21.0.0, SVG Export Plug-In . SVG Version: 6.00 Build 0)  -->
<svg version="1.1" id="Capa_1" xmlns="http://www.w3.org/2000/svg" xmlns:xlink="http://www.w3.org/1999/xlink" x="0px" y="0px"
	 viewBox="0 0 128 128" style="enable-background:new 0 0 128 128;" xml:space="preserve">
<style type="text/css">
	.st0{fill:none;}
	.st1{fill:#D7D7D7;}
</style>
<path class="st0" d="M0,0h128v128H0V0z"/>
<path class="st1" d="M105.8,29.8c0,4.2-3.4,7.7-7.7,7.7s-7.7-3.4-7.7-7.7s3.4-7.7,7.7-7.7S105.8,25.6,105.8,29.8z M64,85.3
	c-11.8,0-21.3-9.6-21.3-21.3S52.2,42.7,64,42.7S85.3,52.2,85.3,64S75.8,85.3,64,85.3z M64,31.1c-18.2,0-32.9,14.7-32.9,32.9
	S45.8,96.9,64,96.9S96.9,82.2,96.9,64S82.2,31.1,64,31.1z M64,11.5c17.1,0,19.1,0.1,25.9,0.4c6.2,0.3,9.6,1.3,11.9,2.2
	c3,1.2,5.1,2.5,7.4,4.8c2.2,2.2,3.6,4.4,4.8,7.4c0.9,2.3,1.9,5.6,2.2,11.9c0.3,6.7,0.4,8.8,0.4,25.9s-0.1,19.1-0.4,25.9
	c-0.3,6.2-1.3,9.6-2.2,11.9c-1.2,3-2.5,5.1-4.8,7.4c-2.2,2.2-4.4,3.6-7.4,4.8c-2.3,0.9-5.6,1.9-11.9,2.2c-6.7,0.3-8.8,0.4-25.9,0.4
	s-19.1-0.1-25.9-0.4c-6.2-0.3-9.6-1.3-11.9-2.2c-3-1.2-5.1-2.5-7.4-4.8c-2.2-2.2-3.6-4.4-4.8-7.4c-0.9-2.3-1.9-5.6-2.2-11.9
	c-0.3-6.7-0.4-8.8-0.4-25.9s0.1-19.1,0.4-25.9c0.3-6.2,1.3-9.6,2.2-11.9c1.2-3,2.5-5.1,4.8-7.4c2.2-2.2,4.4-3.6,7.4-4.8
	c2.3-0.9,5.6-1.9,11.9-2.2C44.9,11.6,46.9,11.5,64,11.5z M64,0C46.6,0,44.4,0.1,37.6,0.4s-11.5,1.4-15.5,3
	c-4.2,1.6-7.8,3.8-11.3,7.4S5,17.9,3.4,22.1c-1.6,4.1-2.7,8.7-3,15.5S0,46.6,0,64s0.1,19.6,0.4,26.4s1.4,11.5,3,15.5
	c1.6,4.2,3.8,7.8,7.4,11.3s7.1,5.7,11.3,7.4c4.1,1.6,8.7,2.7,15.5,3s9,0.4,26.4,0.4s19.6-0.1,26.4-0.4s11.5-1.4,15.5-3
	c4.2-1.6,7.8-3.8,11.3-7.4c3.6-3.6,5.7-7.1,7.4-11.3c1.6-4.1,2.7-8.7,3-15.5s0.4-9,0.4-26.4s-0.1-19.6-0.4-26.4s-1.4-11.5-3-15.5
	c-1.6-4.2-3.8-7.8-7.4-11.3c-3.6-3.6-7.1-5.7-11.3-7.4c-4.1-1.6-8.7-2.7-15.5-3C83.6,0.1,81.4,0,64,0z"/>
</svg>
