<?xml version="1.0" encoding="utf-8"?>
<!-- Generator: Adobe Illustrator 21.0.0, SVG Export Plug-In . SVG Version: 6.00 Build 0)  -->
<svg version="1.1" id="Capa_1" xmlns="http://www.w3.org/2000/svg" xmlns:xlink="http://www.w3.org/1999/xlink" x="0px" y="0px"
	 viewBox="0 0 18 18" style="enable-background:new 0 0 18 18;" xml:space="preserve">
<style type="text/css">
	.st0{fill:none;}
	.st1{fill:#BBBBBB;}
</style>
<path class="st0" d="M0,0h18v18H0V0z"/>
<path class="st1" d="M15.8,4.5h-5.7L12.5,2L12,1.5l-3,3l-3-3L5.5,2l2.5,2.5H2.3C1.4,4.5,0.8,5.2,0.8,6v9c0,0.8,0.7,1.5,1.5,1.5h13.5
	c0.8,0,1.5-0.7,1.5-1.5V6C17.3,5.2,16.6,4.5,15.8,4.5z M15.8,15H2.3V6h13.5V15z M6.8,7.5v6l5.3-3L6.8,7.5z"/>
</svg>
