<?xml version="1.0" encoding="utf-8"?>
<!-- Generator: Adobe Illustrator 21.0.0, SVG Export Plug-In . SVG Version: 6.00 Build 0)  -->
<svg version="1.1" id="Capa_1" xmlns="http://www.w3.org/2000/svg" xmlns:xlink="http://www.w3.org/1999/xlink" x="0px" y="0px"
	 viewBox="0 0 24 24" style="enable-background:new 0 0 24 24;" xml:space="preserve">
<style type="text/css">
	.st0{fill:none;}
	.st1{fill:#D7D7D7;}
</style>
<path class="st0" d="M0,0h24v24H0V0z"/>
<path class="st1" d="M14.8,3.4L14,3.2h-0.3c-0.1,0.1-0.2,0.1-0.2,0.3L8.9,20.2v0.3C9,20.6,9,20.7,9.2,20.7l0.8,0.2h0.3
	c0.1-0.1,0.2-0.1,0.2-0.3l4.6-16.7V3.6C15,3.5,14.9,3.4,14.8,3.4z M7.5,6.6c0-0.1,0-0.2-0.1-0.3L6.8,5.7C6.7,5.6,6.6,5.6,6.5,5.6
	s-0.2,0-0.3,0.1l-6,6c-0.1,0.1-0.1,0.2-0.1,0.3s0,0.2,0.1,0.3l6,6c0.1,0.1,0.2,0.1,0.3,0.1s0.2,0,0.3-0.1l0.6-0.6
	c0.1-0.1,0.1-0.2,0.1-0.3c0-0.1,0-0.2-0.1-0.3L2.3,12l5.1-5.1C7.4,6.9,7.5,6.8,7.5,6.6z M23.9,11.9l-6-6c-0.1-0.1-0.2-0.1-0.3-0.1
	c-0.1,0-0.2,0-0.3,0.1l-0.6,0.6c-0.1,0.1-0.1,0.2-0.1,0.3c0,0.1,0,0.2,0.1,0.3l5.1,5.1l-5.1,5.1c-0.1,0.1-0.1,0.2-0.1,0.3
	c0,0.1,0,0.2,0.1,0.3l0.6,0.6c0.1,0.1,0.2,0.1,0.3,0.1c0.1,0,0.2,0,0.3-0.1l6-6c0.1-0.1,0.1-0.2,0.1-0.3C24,12,24,11.9,23.9,11.9z"
	/>
</svg>
