<?xml version="1.0" encoding="utf-8"?>
<!-- Generator: Adobe Illustrator 21.0.0, SVG Export Plug-In . SVG Version: 6.00 Build 0)  -->
<svg version="1.1" id="Capa_1" xmlns="http://www.w3.org/2000/svg" xmlns:xlink="http://www.w3.org/1999/xlink" x="0px" y="0px"
	 viewBox="0 0 32 32" style="enable-background:new 0 0 32 32;" xml:space="preserve">
<style type="text/css">
	.st0{fill:#D7D7D7;}
</style>
<path class="st0" d="M17.1,1.6v7.3h5.7v4.3h-5.7v9.3c0,0-0.1,2.4,2.5,2.5c1.5,0,2.4-0.4,2.6-0.5h0.1l1.4,4.1c-0.1,0.1-1,1.1-3.8,1.6
	c-3,0.5-6.9-0.2-9-4.2c-1.1-2.4-0.9-4.6-0.9-4.7v-8.1H7V9.5c0,0,4.9-1.2,5.7-7.8c0-0.1,0.1-0.2,0.2-0.2C14.8,1.5,16.7,1.5,17.1,1.6
	C17.1,1.5,17.1,1.5,17.1,1.6z"/>
</svg>
