<svg width="23" height="30" viewBox="0 0 23 30" fill="none" xmlns="http://www.w3.org/2000/svg">
<path fill-rule="evenodd" clip-rule="evenodd" d="M10.2353 29.0364C10.4905 29.2019 10.7996 29.2922 11.1176 29.2941C11.4354 29.2906 11.7439 29.2005 12 29.0364L11.1176 27.8824L10.2353 29.0364Z" fill="#073184"/>
<path fill-rule="evenodd" clip-rule="evenodd" d="M9.88232 28.0701C9.88266 28.2489 9.92538 28.4255 10.0076 28.5882L11.2941 26.8236C10.9233 26.8215 10.5667 26.9515 10.3022 27.1851C10.0377 27.4186 9.88673 27.7368 9.88232 28.0701Z" fill="#073184"/>
<path fill-rule="evenodd" clip-rule="evenodd" d="M11.2941 26.8236L12.2564 28.5882C12.3201 28.4263 12.3531 28.2493 12.353 28.0701C12.3513 27.9045 12.3226 27.7408 12.2686 27.5885C12.2145 27.4362 12.136 27.2982 12.0377 27.1825C11.9394 27.0667 11.8231 26.9754 11.6955 26.9139C11.5679 26.8523 11.4315 26.8216 11.2941 26.8236Z" fill="#073184"/>
<path fill-rule="evenodd" clip-rule="evenodd" d="M18.8186 0H3.42381C3.42381 0 0 0 0 3.39457V26.5949C0 30 3.42381 30 3.42381 30H18.8186C18.8186 30 22.2353 30 22.2353 26.5949V3.39457C22.2353 0 18.8186 0 18.8186 0ZM11.1141 29.649C10.7973 29.6414 10.4897 29.5413 10.2299 29.3612C9.97019 29.1811 9.76978 28.9291 9.6538 28.6367C9.53781 28.3442 9.51142 28.0244 9.5779 27.7171C9.64439 27.4099 9.80082 27.1289 10.0276 26.9094C10.2544 26.6898 10.5414 26.5415 10.8528 26.4829C11.1642 26.4244 11.4861 26.4582 11.7782 26.5801C12.0703 26.7021 12.3197 26.9067 12.495 27.1685C12.6704 27.4303 12.764 27.7375 12.7641 28.0517C12.7584 28.4803 12.5816 28.8892 12.2723 29.1887C11.9629 29.4881 11.5464 29.6536 11.1141 29.649ZM21.0527 26.0367H1.18612V3.69647H21.0527V26.0367Z" fill="#073184"/>
<path d="M6.58882 11.7446C6.81607 11.5711 7.07313 11.3755 7.05823 11.1947C7.05778 11.1603 7.0503 11.1263 7.03624 11.0948C7.02218 11.0634 7.00182 11.035 6.9764 11.0116C6.95098 10.9881 6.92103 10.97 6.88835 10.9584C6.85567 10.9467 6.82095 10.9417 6.78627 10.9437C6.74909 10.9403 6.71168 10.9403 6.67451 10.9437C6.64872 10.9495 6.62455 10.9608 6.60372 10.9769C5.79795 11.5131 5.14289 12.2433 4.70002 13.099C4.68139 13.3315 4.58826 13.8372 4.58826 13.911C4.58826 13.9848 4.70747 14.0586 4.78198 14.1176C5.17204 13.2779 5.72088 12.52 6.39882 11.8848C6.44353 11.859 6.51431 11.8036 6.58882 11.7446Z" fill="#073184"/>
<path d="M17.1466 15.5058C16.8263 13.9842 15.9604 12.6259 14.7065 11.6782L14.6739 11.6533C14.3367 11.4005 13.7784 10.9839 13.336 10.9412H13.3107C13.2708 10.9412 13.249 10.9625 13.249 10.9697C13.1891 10.9876 13.1375 11.0255 13.103 11.0769C13.0686 11.1282 13.0535 11.1898 13.0605 11.2509C13.0605 11.4041 13.2454 11.4931 13.4629 11.607L13.666 11.7138C14.4322 12.1243 15.0941 12.6993 15.6026 13.3959C16.1111 14.0925 16.453 14.8929 16.6028 15.7373C16.8167 16.7698 16.6463 18.0409 16.4287 19.2658C16.2728 20.1452 16.1024 20.8965 15.8813 21.7083V21.7582C15.8209 21.9101 15.7926 22.0724 15.7979 22.2353C15.9465 22.1071 16.2438 21.9077 16.4686 21.7546C16.5266 21.5267 16.5592 21.3986 16.5991 21.2134L16.7006 20.7826C17.0668 19.1946 17.5382 17.2149 17.1466 15.5058Z" fill="#073184"/>
<path d="M7.19423 9.03287L7.31802 8.98066C7.42873 8.94084 7.53443 8.88699 7.63281 8.82027C7.95306 8.68464 8.28304 8.57613 8.61963 8.49577C8.71746 8.4827 8.81435 8.46276 8.90967 8.43609H8.98394C9.28048 8.3701 9.58047 8.32277 9.88234 8.29435C9.71976 8.10124 9.54101 7.92397 9.34825 7.76471C9.2076 7.76996 9.06779 7.78995 8.93089 7.82439C8.80571 7.84584 8.68173 7.87448 8.5595 7.91018C8.04779 8.02675 7.54966 8.20185 7.07397 8.43236C6.3599 8.74725 5.69276 9.16936 5.09325 9.68561L5.01898 9.74901C5.03203 10.0313 5.00581 10.314 4.94116 10.5882C5.61013 9.94831 6.37046 9.42343 7.19423 9.03287Z" fill="#073184"/>
<path d="M8.43238 6.74129C8.40808 6.71522 8.26922 6.72944 8.17201 6.71048C8.0901 6.70436 8.00745 6.70436 7.92553 6.71048L7.76237 6.77446C7.69641 6.79579 7.46034 6.7247 7.43604 6.97352C7.43264 7.00249 7.42449 7.0311 7.41174 7.05883C7.75861 6.96771 8.112 6.88862 8.47057 6.82186C8.46019 6.79451 8.44744 6.7676 8.43238 6.74129Z" fill="#073184"/>
<path d="M9.17648 7.54581C9.16257 7.54261 9.14816 7.54261 9.13424 7.54581C9.07089 7.54581 8.93009 7.47571 8.84562 7.22484C8.82543 7.16227 8.7917 7.10545 8.74706 7.05882L8.62739 7.08465C7.43715 7.37208 6.30735 7.88602 5.29413 8.60094C5.36899 8.78692 5.42788 8.97953 5.47012 9.17647C5.66019 9.03628 5.85378 8.90346 6.05793 8.77434C7.01868 8.17199 8.07505 7.75584 9.17648 7.54581Z" fill="#073184"/>
<path d="M6.4458 20.1186C6.39126 20.1194 6.33725 20.1283 6.28604 20.145H6.25632V20.1681C6.08542 20.6005 5.8848 21.0592 5.64703 21.5245C5.73729 21.531 5.82799 21.531 5.91824 21.5245C6.04827 21.5245 6.2266 21.4387 6.34549 21.4321L6.39378 21.3232C6.57071 20.9938 6.67657 20.6378 6.70586 20.2737V20.2473C6.68214 20.2051 6.64462 20.1702 6.59822 20.1473C6.55182 20.1243 6.49869 20.1143 6.4458 20.1186Z" fill="#073184"/>
<path d="M6.48362 7.52266L6.56884 7.48427L6.75347 7.4107L7.05883 7.29234L6.93811 7.26035C6.91681 7.29874 6.34514 7.26035 6.29188 7.1164C6.28159 7.09428 6.26579 7.07458 6.24572 7.05882L6.20666 7.07802H6.17471L6.07529 7.1228V7.21237C6.05156 7.34125 5.99186 7.46259 5.9018 7.56498C5.81174 7.66738 5.69428 7.74748 5.56043 7.79776C5.48414 7.81877 5.41724 7.86108 5.36937 7.91857C5.32151 7.97607 5.29516 8.04578 5.29413 8.11764C5.29413 8.11764 5.31543 8.11764 5.32253 8.09205C5.60351 7.90911 5.90311 7.75059 6.21731 7.61862C6.31062 7.59798 6.40025 7.56568 6.48362 7.52266Z" fill="#073184"/>
<path d="M10.0382 21.3652C10.504 19.8652 10.8068 18.3175 10.9412 16.7501V16.7177L10.9165 16.6961C10.8473 16.6346 10.7609 16.5969 10.6696 16.5882C10.4332 16.5882 10.398 16.9264 10.3592 17.2501C10.3592 17.3112 10.3592 17.3724 10.338 17.4264C10.15 18.6881 9.87417 19.9347 9.51262 21.1565C9.51262 21.2033 9.46677 21.2824 9.4315 21.376C9.26924 21.7932 9.02586 22.4191 9.30099 22.563C9.33112 22.5802 9.36522 22.5889 9.39975 22.5882C9.6784 22.5882 9.86535 22.0198 10.0135 21.4587C10.0241 21.4191 10.0347 21.3832 10.0382 21.3652Z" fill="#073184"/>
<path d="M11.8792 19.3285V19.3562H11.9026C11.9548 19.3878 12.0131 19.4068 12.0733 19.4118C12.3745 19.4118 12.4415 18.8322 12.4917 18.4088C12.4917 18.3255 12.4917 18.2526 12.5185 18.1936C12.5452 18.1346 12.5553 17.9715 12.5787 17.8466C12.6517 17.5043 12.6943 17.1557 12.7059 16.8054C12.6984 16.3694 12.5565 15.9474 12.3009 15.6011C11.9756 15.1834 11.5087 14.9103 10.9957 14.8376C10.6208 14.7994 10.3899 14.8376 10.2895 14.9695C10.2657 15.0009 10.2491 15.0376 10.241 15.0767C10.2329 15.1157 10.2334 15.1562 10.2426 15.1951C10.2828 15.3894 10.4769 15.3894 10.5606 15.3894H10.6911C10.7802 15.3825 10.8697 15.3825 10.9588 15.3894C11.2903 15.426 11.5972 15.5877 11.8212 15.8436C12.0452 16.0996 12.1707 16.432 12.1737 16.7776C12.1775 17.1903 12.1257 17.6015 12.0198 17.9993C11.902 18.4311 11.8545 18.8804 11.8792 19.3285Z" fill="#073184"/>
<path d="M17.3906 18.5288C17.3906 18.4713 17.3906 18.4071 17.3445 18.4071C17.2984 18.4071 17.284 18.4071 17.2754 18.3529C17.1832 19.0633 17.0737 19.7703 16.9412 20.4706C17.0305 20.3454 17.1601 20.183 17.1601 20.183C17.1601 20.183 17.4194 19.767 17.5865 19.4422C17.6067 19.3069 17.6298 19.1716 17.647 19.0363C17.5383 18.8849 17.4516 18.7135 17.3906 18.5288Z" fill="#073184"/>
<path d="M11.8714 17.7208C11.9727 17.325 12.0145 16.9164 11.9956 16.5084C11.9506 16.2371 11.811 15.9902 11.6014 15.8112C11.3918 15.6321 11.1256 15.5324 10.8495 15.5294H10.7856C9.85246 15.5824 9.74602 16.2858 9.62538 17.1022C9.61118 17.1918 9.59699 17.2837 9.5828 17.3779C9.44789 18.1939 9.26904 19.0021 9.04702 19.799C9.04702 19.8414 9.01508 19.9015 8.99024 19.9722C8.89089 20.2479 8.75606 20.619 8.86251 20.824C8.878 20.8536 8.8996 20.8797 8.92589 20.9004C8.95219 20.9211 8.98258 20.936 9.01508 20.9442H9.0754C9.34152 20.9442 9.45861 20.467 9.54022 20.1207C9.54022 20.0641 9.56861 20.0146 9.57925 19.9687C9.79271 19.1746 9.96444 18.3701 10.0937 17.5582C10.1115 17.4522 10.1257 17.3426 10.1399 17.2295C10.2144 16.6534 10.296 16.0525 10.8495 16.0525H10.885C10.9596 16.0515 11.0336 16.0668 11.1016 16.0974C11.1696 16.1279 11.2301 16.1729 11.2788 16.2292C11.5272 16.5403 11.403 17.2118 11.3037 17.749L11.2718 17.9293C10.9755 19.6447 10.4998 21.3244 9.85246 22.9412C9.9802 22.9412 10.3279 22.92 10.4734 22.9058C11.087 21.3041 11.5433 19.647 11.8359 17.9576C11.8395 17.8975 11.8572 17.8091 11.8714 17.7208Z" fill="#073184"/>
<path d="M12.2331 22.5119C12.2925 22.5181 12.3496 22.5371 12.4002 22.5674L12.4293 22.5882C12.816 21.5306 13.1303 20.45 13.3703 19.3533L13.3884 19.27C13.6754 17.9858 14.0678 16.226 13.3884 15.157C13.1146 14.7377 12.7349 14.3908 12.2842 14.1482C11.8335 13.9056 11.3262 13.7751 10.8089 13.7686C10.7169 13.7634 10.6247 13.7634 10.5328 13.7686C9.95826 13.8064 9.40787 14.004 8.9495 14.337C8.49112 14.6701 8.14481 15.1241 7.95326 15.6429C7.95326 15.6429 7.62265 16.528 7.837 16.8195C7.85903 16.8505 7.8889 16.8757 7.92384 16.8927C7.95878 16.9097 7.99764 16.9179 8.03682 16.9167C8.32747 16.9167 8.35291 16.6148 8.36744 16.3718C8.37228 16.2903 8.38199 16.2092 8.3965 16.1288C8.51737 15.6305 8.80322 15.1827 9.21163 14.852C9.62004 14.5212 10.1292 14.3251 10.6636 14.2927H10.8162C11.4618 14.2955 12.08 14.5424 12.5355 14.9795C12.991 15.4167 13.2467 16.0084 13.2467 16.6252C13.2316 16.9622 13.1891 17.2976 13.1196 17.6283C13.1014 17.7116 13.0869 17.7984 13.0723 17.8817C12.8098 19.4273 12.4087 20.9485 11.8734 22.4286C12.0296 22.4702 12.1677 22.498 12.2331 22.5119Z" fill="#073184"/>
<path d="M8.50461 21.5425C8.35527 21.5597 8.24665 21.7744 8.11768 22.0807C8.22545 22.1301 8.33926 22.1694 8.45709 22.1981C8.52715 22.2059 8.59637 22.2184 8.66413 22.2353C8.79311 21.9776 8.87796 21.7372 8.78293 21.6141C8.7525 21.5778 8.70866 21.5511 8.65828 21.5381C8.6079 21.5252 8.55384 21.5267 8.50461 21.5425Z" fill="#073184"/>
<path d="M9.06667 17.482C9.14496 16.8834 9.23038 16.2606 9.50442 15.9028C9.54948 15.8482 9.59951 15.7975 9.6539 15.7514C9.77134 15.6517 9.89235 15.5485 9.88167 15.4074C9.87505 15.3619 9.85647 15.3189 9.8277 15.2823C9.79894 15.2458 9.76096 15.217 9.7174 15.1987C9.67383 15.1804 9.62614 15.1732 9.57888 15.1778C9.53162 15.1824 9.48638 15.1987 9.44748 15.2251C8.79974 15.6207 8.6823 16.412 8.55773 17.248C8.5257 17.482 8.49011 17.7228 8.44029 17.9602C8.19183 19.1517 7.84795 20.3227 7.41174 21.4626C7.44649 21.5055 7.47858 21.5503 7.50784 21.5968C7.61622 21.7033 7.73546 21.799 7.86373 21.8824C8.34312 20.6956 8.71001 19.4692 8.9599 18.2183C8.99905 17.9843 9.03819 17.7297 9.06667 17.482Z" fill="#073184"/>
<path d="M12.3224 9.6312C12.0404 9.58488 11.7556 9.55091 11.4694 9.52942C11.3333 9.70531 11.1672 9.86349 10.9764 9.99891L10.9412 10.0186C11.5374 10.0336 12.1295 10.1063 12.7059 10.2353C12.5594 10.0426 12.4312 9.84066 12.3224 9.6312Z" fill="#073184"/>
<path d="M5.08292 15.794C5.08292 15.7442 5.08292 15.6944 5.1074 15.6445C5.23495 14.9062 5.50455 14.2008 5.90073 13.5687C6.29691 12.9366 6.81187 12.3904 7.41606 11.9613C8.44584 11.2063 9.6798 10.7937 10.949 10.7798C11.3214 10.7801 11.6929 10.8183 12.0579 10.8937L12.1768 10.9257C12.2689 10.9545 12.364 10.9724 12.4601 10.9791C12.4918 10.9821 12.5238 10.9783 12.554 10.9677C12.5841 10.9572 12.6117 10.9403 12.6348 10.918C12.658 10.8958 12.6763 10.8688 12.6884 10.8388C12.7005 10.8088 12.7061 10.7766 12.705 10.7442C12.708 10.7103 12.7036 10.6761 12.6921 10.6441C12.6806 10.6121 12.6623 10.5831 12.6385 10.5591C12.3622 10.2495 11.2393 10.2353 11.0015 10.2353H10.8406C9.20436 10.27 7.63697 10.9116 6.43313 12.0396C5.62081 12.8435 5.02674 13.8475 4.70864 14.9541V14.9862C4.66666 15.1178 4.63168 15.2566 4.6002 15.3954C4.58798 15.4361 4.58509 15.479 4.59176 15.521C4.59843 15.5629 4.61448 15.6028 4.63868 15.6374C4.73349 15.8214 4.77818 16.0278 4.7681 16.2353H4.79958C5.03395 16.2353 5.05843 16.0004 5.08292 15.794Z" fill="#073184"/>
<path d="M7.17119 9.92394L7.20751 9.90708C8.35418 9.32411 9.63425 9.00387 10.9412 8.97302C10.9347 8.94077 10.925 8.90916 10.9121 8.8786C10.7664 8.7376 10.6085 8.60791 10.44 8.49081V8.47058C9.34546 8.55882 8.27731 8.83075 7.28741 9.27313L7.18208 9.31697C7.04116 9.37212 6.90514 9.43751 6.7753 9.51255C6.38104 9.73115 6.0058 9.97807 5.65303 10.251L5.59492 10.2949L5.54407 10.332C5.35884 10.4837 5.15908 10.6692 4.95932 10.858C4.95932 10.9929 4.95932 11.2154 4.95932 11.2154H4.94116C4.96239 11.3584 4.9721 11.5027 4.97022 11.6471C5.19063 11.3905 5.4336 11.1514 5.69661 10.9322C5.72203 10.9119 5.76562 10.8782 5.81283 10.8479C5.85868 10.8278 5.89951 10.7991 5.93269 10.7636C5.97787 10.7318 6.01927 10.6956 6.05617 10.6557C6.41901 10.3899 6.796 10.1411 7.18571 9.91045L7.17119 9.92394Z" fill="#073184"/>
<path d="M18.3225 15.9956V15.9305C18.2975 15.7607 18.2653 15.5908 18.2331 15.421C18.2018 15.3289 18.166 15.2384 18.1257 15.15C18.0577 15.0199 17.3026 13.4046 17.2131 13.4118C17.1246 13.4393 17.0334 13.4574 16.9412 13.466C17.3371 14.1831 17.606 14.9646 17.7356 15.7751C17.7356 15.8583 17.7356 15.9558 17.7571 16.0462C17.7519 16.2339 17.7924 16.42 17.8752 16.5882C18.0264 16.5096 18.1861 16.4489 18.3512 16.4075C18.3572 16.2696 18.3476 16.1313 18.3225 15.9956Z" fill="#073184"/>
<path d="M4.30665 20.2178C4.378 20.3216 4.4672 20.4773 4.58137 20.4704C4.60713 20.4641 4.6341 20.4641 4.65986 20.4704C5.01169 19.5605 5.29197 18.6261 5.4983 17.6752C5.56965 17.3604 5.61604 17.0283 5.66242 16.7066C5.7088 16.3849 5.74091 16.1566 5.79443 15.8902C6.03968 14.6334 6.77751 13.5175 7.85306 12.7768C7.90771 12.7437 7.96498 12.7148 8.02431 12.6903C8.22768 12.5935 8.47743 12.4759 8.47029 12.251C8.47202 12.2167 8.46607 12.1823 8.45286 12.1504C8.43964 12.1185 8.41946 12.0897 8.39371 12.0661C8.36796 12.0424 8.33724 12.0245 8.30366 12.0134C8.27008 12.0023 8.23442 11.9984 8.19914 12.0019H8.14919C8.12402 11.9979 8.09819 12.0002 8.07426 12.0089C7.37067 12.3858 6.75876 12.9049 6.27989 13.531C5.80101 14.157 5.46634 14.8754 5.2985 15.6377C5.23071 15.9386 5.1879 16.2465 5.14508 16.5682C5.10227 16.89 5.06302 17.1563 5.00237 17.4469C4.8186 18.3494 4.56212 19.2366 4.23529 20.1002L4.30665 20.2178Z" fill="#073184"/>
<path d="M7.90916 19.2331C8.0584 18.7486 8.12848 18.2398 8.11628 17.7294V17.6939H8.08669C7.98932 17.6435 7.87817 17.6334 7.77436 17.6655H7.75135V17.6904C7.63567 18.0197 7.55086 18.3607 7.4982 18.7082C7.46532 18.8926 7.43244 19.0629 7.3897 19.2579C7.20197 20.0268 6.97366 20.7834 6.70587 21.5241C6.78149 21.5241 6.92943 21.5241 6.98204 21.5241C7.07288 21.5312 7.16407 21.5312 7.25491 21.5241C7.49738 20.8274 7.70481 20.1171 7.87628 19.3962L7.90916 19.2331Z" fill="#073184"/>
<path d="M3.90805 19.1174C3.90805 19.1931 3.96235 19.5616 3.96235 19.6132C3.96816 19.6717 3.99155 19.7256 4.02809 19.7647C4.15671 19.3274 4.27675 18.8832 4.37965 18.4287C4.37965 18.4011 4.39394 18.3667 4.40537 18.322C4.55971 17.6781 4.6426 17.2166 4.54828 17.072C4.52908 17.0353 4.50311 17.0043 4.47237 16.9816C4.44164 16.9589 4.40697 16.9451 4.37107 16.9412C4.18815 16.9412 4.11384 17.3509 4.08525 17.5713V17.5954C4.02523 17.9191 3.95664 18.2393 3.88232 18.5527C3.88232 18.6319 3.88232 18.711 3.88232 18.7661C3.88804 18.9418 3.9252 19.0382 3.90805 19.1174Z" fill="#073184"/>
<path d="M12.2201 20.9835C12.3283 20.6584 12.4133 20.3558 12.2974 20.2026C12.2606 20.1637 12.2125 20.1365 12.1594 20.1245C12.1063 20.1125 12.0507 20.1163 11.9999 20.1354C11.7719 20.1952 11.7178 20.4829 11.6753 20.7145C11.6753 20.7817 11.6483 20.8452 11.6328 20.9013C11.428 21.5925 11.1923 22.2724 10.9412 22.9412C11.0648 22.9205 11.1864 22.8892 11.3044 22.8478C11.4018 22.8183 11.5048 22.8106 11.6058 22.8254C11.8144 22.2575 11.9921 21.6821 12.1853 21.0881C12.1931 21.0582 12.2085 21.0246 12.2201 20.9835Z" fill="#073184"/>
<path d="M15.4757 22.6388C15.6656 22.0053 15.834 21.3646 15.9845 20.7131C15.9845 20.6411 16.0167 20.5655 16.0382 20.4935C16.1593 20.0609 16.2255 19.6146 16.2353 19.1653V19.1221H16.2031C16.1498 19.0899 16.0903 19.0694 16.0285 19.062C15.9668 19.0545 15.9041 19.0603 15.8447 19.0789H15.8197V19.1077C15.6763 19.6224 15.5545 20.1444 15.4363 20.6483C15.3324 21.0874 15.2284 21.541 15.1066 21.9801C15.017 22.3005 14.9239 22.6208 14.8235 22.9412C14.852 22.9317 14.8796 22.9197 14.906 22.9052C15.0871 22.7985 15.2778 22.7093 15.4757 22.6388Z" fill="#073184"/>
<path d="M13.919 21.3773C14.0783 21.0067 14.1433 20.6049 14.1085 20.2053V20.1761H14.082C14.0215 20.14 13.9522 20.1198 13.8811 20.1176C13.6157 20.1176 13.5361 20.4535 13.4754 20.7274L13.4413 20.8661C13.229 21.6694 12.9826 22.4507 12.7059 23.2174C12.7242 23.232 12.7466 23.241 12.7703 23.243C12.8461 23.243 13.1153 23.2795 13.3048 23.2941C13.4906 22.7684 13.6839 22.2389 13.8242 21.7022C13.8621 21.5854 13.8811 21.5014 13.919 21.3773Z" fill="#073184"/>
<path d="M7.31202 10.9409C7.51385 10.9148 7.70728 10.8449 7.87837 10.7363L7.90346 10.7186C8.73965 10.3308 9.64973 10.1216 10.5739 10.1046V10.0552C10.5639 9.87986 10.5687 9.70399 10.5882 9.52942H10.2656C9.64681 9.56842 9.03583 9.68706 8.4483 9.8823L8.36944 9.91759C7.69556 10.1293 7.0145 10.3869 7.0611 10.708C7.06155 10.7397 7.06845 10.771 7.0814 10.7999C7.09435 10.8289 7.11308 10.8551 7.13648 10.8768C7.15989 10.8985 7.18748 10.9154 7.21764 10.9264C7.24779 10.9374 7.27988 10.9424 7.31202 10.9409Z" fill="#073184"/>
<path d="M15.3022 18.8249C15.4351 18.1973 15.5112 17.5574 15.5294 16.9141C15.51 15.9941 15.2548 15.0978 14.7919 14.3238C14.6635 14.115 14.4462 13.7647 14.2158 13.7647C14.1583 13.7652 14.1027 13.7864 14.0577 13.8249V13.8461C13.9293 14.1044 14.1038 14.299 14.2289 14.4406C14.2658 14.4791 14.2999 14.5205 14.331 14.5644C14.7917 15.2655 15.0337 16.1054 15.0224 16.9636C15.001 17.5593 14.9283 18.1516 14.8051 18.7329C14.7788 18.8709 14.7524 19.0089 14.7294 19.1434C14.4997 20.5498 14.1774 21.9368 13.7647 23.2941C13.9344 23.2723 14.0999 23.2221 14.2553 23.1455C14.2948 23.1066 14.3145 23.0853 14.3442 23.0818C14.7202 21.8142 15.0215 20.5225 15.2463 19.2141L15.3022 18.8249Z" fill="#073184"/>
<path d="M10.6462 11.3148H10.5755C10.007 11.3532 9.40313 11.4232 9.2301 11.6646C9.20645 11.6922 9.18992 11.7251 9.18192 11.7604C9.17393 11.7958 9.17471 11.8325 9.18419 11.8675C9.19618 11.9251 9.22989 11.9759 9.27845 12.0097C9.32701 12.0435 9.38676 12.0577 9.44551 12.0494C9.5655 12.0438 9.68423 12.0226 9.79864 11.9864L9.90105 11.9584C10.2675 11.878 10.6416 11.8369 11.0169 11.836C12.3044 11.8422 13.5391 12.344 14.46 13.2352C15.0551 13.781 15.5055 14.4634 15.7715 15.2223C16.0375 15.9812 16.111 16.7932 15.9855 17.5869V17.6778C15.9431 17.9507 15.8937 18.2935 16.1374 18.3495C16.1702 18.3541 16.2034 18.3541 16.2362 18.3495C16.4481 18.3495 16.4764 18.1571 16.5117 17.8912V17.7828C16.6437 16.999 16.6046 16.1962 16.3968 15.4286C16.1891 14.661 15.8177 13.9465 15.3075 13.3332C14.7988 12.7029 14.1543 12.1932 13.4211 11.8416C12.6879 11.4899 11.8845 11.3051 11.0699 11.3008C10.9357 11.2903 10.7909 11.2903 10.6462 11.3148Z" fill="#073184"/>
<path d="M6.94384 19.4118C7.24674 19.4118 7.31366 18.9823 7.35593 18.6948C7.35593 18.629 7.37354 18.5736 7.38411 18.5321C7.44046 18.2896 7.54965 17.8117 7.60248 17.4931C7.63418 17.3199 7.66235 17.1467 7.69053 16.9632C7.74672 16.4501 7.86496 15.9455 8.04274 15.4601C8.30385 14.8919 8.72704 14.4105 9.26096 14.0742C9.79489 13.7379 10.4166 13.5612 11.0506 13.5656H11.0859C11.9017 13.5865 12.6808 13.9035 13.2731 14.4557C13.8687 14.9941 14.2275 15.7395 14.2734 16.5337C14.2904 16.9627 14.2525 17.392 14.1607 17.8117C14.1395 17.9225 14.1219 18.0299 14.1043 18.158C14.1043 18.2065 14.0832 18.2654 14.0691 18.3312C14.0092 18.6013 13.9352 18.9373 14.0691 19.0966C14.0924 19.1245 14.1221 19.1466 14.1558 19.1611C14.1895 19.1755 14.2261 19.1819 14.2628 19.1797C14.5305 19.1797 14.5798 18.7884 14.615 18.4074L14.6467 18.1753C14.6467 18.0818 14.6784 17.9779 14.6995 17.874C14.7489 17.5762 14.8017 17.2645 14.8158 17.029C14.8669 16.2402 14.664 15.4557 14.236 14.7868C13.808 14.1178 13.1765 13.5985 12.4313 13.3024C11.9327 13.1301 11.4064 13.048 10.878 13.06C10.1374 13.0946 9.42177 13.3348 8.81409 13.7526C8.28798 14.1159 7.8688 14.6093 7.59896 15.183C7.32831 15.8646 7.15066 16.5785 7.07064 17.306C7.00372 17.7009 6.94384 18.0749 6.86636 18.4109C6.86636 18.4593 6.83466 18.5217 6.81705 18.5875C6.73956 18.8403 6.64798 19.1555 6.75365 19.3148C6.77187 19.3416 6.7958 19.3641 6.82378 19.3808C6.85176 19.3976 6.88312 19.4081 6.91567 19.4118H6.94384Z" fill="#073184"/>
<path d="M6.26656 15.3992C6.14384 15.8404 6.05969 16.3546 5.96852 16.8965C5.87736 17.4384 5.7932 17.9595 5.66347 18.4563C5.47907 19.1632 5.2543 19.8591 4.99025 20.5407L4.97272 20.5859L4.94116 20.6658C5.08418 20.8215 5.20887 20.9928 5.31283 21.1765C5.38107 21.0805 5.4288 20.9718 5.45309 20.8569L5.48815 20.7457C5.92809 19.6366 6.26035 18.4884 6.48045 17.3169C6.52603 17.0841 6.55759 16.8409 6.58914 16.6221C6.6207 16.4032 6.66278 16.0766 6.71888 15.8022C6.89342 14.927 7.35349 14.1329 8.02825 13.5422C8.70301 12.9515 9.55503 12.597 10.4531 12.5332H10.7126C11.4093 12.5365 12.0944 12.7095 12.7077 13.0369L12.7778 13.0751C12.8926 13.1546 13.0248 13.2058 13.1635 13.2245C13.2162 13.2254 13.2676 13.2088 13.3096 13.1773C13.3515 13.1458 13.3816 13.1012 13.395 13.0508C13.5212 12.7034 12.9076 12.4845 12.5008 12.3282L12.4447 12.3073C11.7748 12.0535 11.0552 11.9549 10.3409 12.019C9.38919 12.086 8.48303 12.4487 7.75148 13.0557C7.01994 13.6626 6.5003 14.4827 6.26656 15.3992Z" fill="#073184"/>
</svg>
